<?xml version="1.0" standalone="no"?>
<!DOCTYPE svg PUBLIC "-//W3C//DTD SVG 20010904//EN"
 "http://www.w3.org/TR/2001/REC-SVG-20010904/DTD/svg10.dtd">
<svg version="1.0" xmlns="http://www.w3.org/2000/svg"
 width="512.000000pt" height="512.000000pt" viewBox="0 0 512.000000 512.000000"
 preserveAspectRatio="xMidYMid meet">

<g transform="translate(0.000000,512.000000) scale(0.100000,-0.100000)"
fill="#ffff" stroke="none">
<path d="M2130 5114 c-567 -52 -1065 -282 -1454 -670 -477 -478 -722 -1144
-667 -1811 88 -1054 872 -1911 1908 -2088 135 -23 303 -34 337 -22 53 19 66
95 22 136 -19 18 -43 23 -137 31 -521 46 -976 256 -1339 620 -267 266 -447
574 -548 936 -33 115 -68 318 -74 421 l-4 62 188 3 c178 3 189 4 210 25 33 33
30 89 -6 119 -26 23 -32 24 -212 24 l-184 0 4 23 c3 12 8 58 11 102 16 218 93
493 199 710 118 244 226 397 415 586 189 189 342 297 586 415 217 106 492 183
710 199 44 3 90 8 103 11 l22 4 0 -143 c0 -143 0 -145 26 -171 29 -28 77 -35
105 -13 33 25 39 55 39 189 l0 134 93 -8 c1006 -83 1815 -864 1937 -1868 5
-46 10 -94 10 -105 0 -14 -48 28 -167 147 -93 92 -180 172 -195 177 -55 21
-107 -18 -108 -79 0 -32 19 -54 262 -297 255 -255 264 -263 302 -263 38 0 48
8 288 248 138 136 256 259 264 274 20 38 17 63 -10 94 -18 21 -32 28 -60 28
-34 0 -49 -12 -214 -177 -97 -97 -181 -177 -185 -177 -4 0 -7 18 -7 40 0 70
-30 262 -61 390 -178 730 -724 1341 -1434 1605 -123 46 -327 98 -466 120 -101
15 -418 27 -509 19z"/>
<path d="M3360 3979 c-14 -5 -232 -217 -486 -470 l-461 -461 -55 12 c-42 10
-67 10 -108 1 l-54 -12 -226 226 c-214 212 -229 225 -264 225 -50 0 -86 -36
-86 -86 0 -35 13 -50 226 -265 l226 -227 -11 -33 c-38 -110 24 -250 137 -305
51 -25 164 -25 212 0 114 60 169 176 140 296 l-13 52 467 467 c449 449 466
467 466 504 0 35 -26 77 -49 77 -5 0 -15 2 -23 4 -7 3 -24 0 -38 -5z m-999
-1108 c35 -36 37 -70 5 -107 -48 -57 -146 -20 -146 55 0 38 44 81 82 81 19 0
40 -10 59 -29z"/>
<path d="M2775 2206 c-299 -58 -529 -314 -552 -616 -6 -78 -6 -79 25 -109 39
-40 74 -40 113 -2 22 23 29 39 29 70 0 119 55 245 150 342 141 144 333 191
525 127 122 -40 205 -113 259 -227 29 -62 31 -73 31 -176 0 -98 -3 -116 -26
-165 -18 -39 -169 -224 -505 -620 -264 -311 -507 -598 -542 -639 -73 -87 -78
-116 -33 -162 l29 -29 617 0 c651 0 662 1 679 45 12 31 6 73 -13 96 l-19 24
-525 5 -525 5 477 562 c394 464 483 573 509 630 42 91 54 150 53 261 -1 266
-187 497 -456 567 -85 22 -217 27 -300 11z"/>
<path d="M4665 2211 c-11 -5 -29 -19 -41 -32 -46 -52 -1202 -1716 -1207 -1738
-8 -32 18 -80 49 -91 15 -6 253 -10 585 -10 l559 0 0 -143 c0 -130 2 -145 20
-165 28 -30 68 -38 99 -21 43 24 51 53 51 197 l0 132 133 0 c143 0 172 8 196
51 17 31 9 71 -21 99 -20 18 -35 20 -165 20 l-143 0 -2 830 c-3 814 -3 830
-23 849 -24 24 -63 33 -90 22z m-55 -1026 l0 -675 -470 0 c-258 0 -470 3 -470
6 0 7 933 1344 938 1344 1 0 2 -304 2 -675z"/>
</g>
</svg>
