<?xml version="1.0" standalone="no"?>
<!DOCTYPE svg PUBLIC "-//W3C//DTD SVG 20010904//EN"
 "http://www.w3.org/TR/2001/REC-SVG-20010904/DTD/svg10.dtd">
<svg version="1.0" xmlns="http://www.w3.org/2000/svg"
 width="512.000000pt" height="512.000000pt" viewBox="0 0 512.000000 512.000000"
 preserveAspectRatio="xMidYMid meet">

<g transform="translate(0.000000,512.000000) scale(0.100000,-0.100000)"
fill="#000000" stroke="none">
<path d="M2970 4989 c-170 -20 -315 -140 -371 -306 -28 -85 -23 -231 10 -307
12 -27 20 -50 18 -52 -1 -2 -23 4 -47 13 -59 21 -221 28 -293 13 -32 -6 -90
-28 -130 -47 -67 -33 -106 -70 -524 -486 -485 -484 -498 -499 -524 -624 l-13
-61 -118 -4 c-113 -3 -119 -4 -145 -31 -24 -24 -28 -36 -31 -101 -10 -189 50
-326 176 -404 69 -42 115 -55 223 -61 l96 -6 -25 -107 -25 -108 -82 6 c-156
12 -370 -27 -522 -96 -233 -106 -457 -335 -553 -568 -63 -149 -83 -250 -84
-417 -1 -197 29 -334 105 -487 63 -129 107 -187 231 -311 l118 -117 -200 0
c-199 0 -201 0 -225 -24 -47 -47 -43 -112 9 -150 27 -20 41 -21 519 -24 540
-3 679 4 827 44 290 79 536 280 684 558 37 70 96 240 96 276 0 26 17 26 25 0
15 -47 40 -50 414 -50 l349 0 27 -80 c63 -189 211 -400 354 -505 22 -16 41
-33 41 -37 0 -5 -149 -8 -331 -8 l-331 0 -29 -29 c-40 -40 -40 -89 0 -133 l29
-33 714 0 c653 0 720 2 796 18 350 77 616 278 771 582 50 97 52 135 12 176
-22 22 -39 29 -68 29 -49 -1 -74 -22 -108 -90 -99 -199 -275 -366 -474 -448
-149 -61 -362 -82 -516 -49 -315 67 -567 290 -671 596 -30 86 -35 115 -41 237
-5 109 -2 156 11 220 44 220 179 427 361 556 50 36 175 102 180 96 1 -2 55
-192 120 -423 65 -231 124 -432 131 -447 14 -28 60 -58 88 -58 46 0 96 53 96
101 0 13 -54 216 -121 452 -66 236 -117 432 -114 436 14 13 260 4 330 -13 268
-64 482 -229 607 -469 31 -60 49 -83 74 -95 65 -30 139 20 137 93 -1 20 -19
67 -43 112 -172 319 -481 529 -843 574 -85 11 -253 7 -303 -7 -19 -5 -23 3
-47 98 -24 96 -52 269 -59 364 l-3 41 29 -30 29 -29 131 4 c110 3 139 7 181
26 58 26 126 89 159 147 97 168 26 390 -152 473 -54 26 -67 27 -252 32 l-195
5 -355 314 c-195 173 -365 324 -378 336 l-23 21 89 -4 c97 -5 177 12 242 51
149 88 230 226 230 392 0 272 -229 475 -500 444z m190 -237 c127 -78 148 -268
43 -377 -50 -52 -105 -75 -178 -75 -148 0 -253 113 -243 264 12 188 215 289
378 188z m-602 -622 c37 -18 185 -143 512 -433 l460 -409 0 -105 0 -105 -32
24 c-175 132 -873 630 -894 638 -53 20 -80 -1 -347 -268 l-259 -259 -81 23
c-45 12 -167 46 -270 75 l-189 52 344 344 c188 189 360 358 381 375 21 17 64
42 95 55 78 32 202 29 280 -7z m492 -951 c250 -181 460 -333 466 -337 7 -4 15
-31 19 -59 l7 -53 -501 0 -500 0 -185 188 -185 187 202 203 c111 111 206 202
212 202 5 0 215 -149 465 -331z m1000 25 c62 -52 76 -128 36 -189 -32 -49 -62
-60 -182 -65 -118 -5 -144 -16 -165 -65 -4 -12 -8 58 -8 163 l-1 182 144 0
c141 0 145 -1 176 -26z m-2396 -103 l319 -89 222 -223 c310 -314 296 -282 390
-868 30 -189 55 -349 55 -357 0 -11 -28 -14 -145 -14 l-144 0 -10 38 c-6 20
-46 195 -90 388 -88 384 -90 392 -117 415 -11 9 -158 96 -329 194 -170 98
-331 193 -357 212 -53 38 -107 116 -131 187 -26 75 -21 206 7 206 6 0 155 -40
330 -89z m-498 -251 c20 -44 43 -85 51 -91 22 -19 14 -29 -24 -29 -86 0 -165
70 -179 158 l-7 42 61 0 60 0 38 -80z m614 -475 c113 -65 207 -119 209 -121 3
-3 133 -559 146 -629 3 -16 -7 -1 -23 35 -58 132 -122 224 -230 333 -111 113
-242 199 -385 252 -35 13 -46 22 -43 34 7 24 56 239 56 246 0 4 15 -2 33 -13
17 -11 124 -73 237 -137z m1348 -91 c-150 -136 -287 -261 -305 -277 -24 -22
-34 -27 -37 -16 -2 8 -18 101 -35 207 -17 106 -41 224 -55 262 l-24 70 364 0
364 0 -272 -246z m486 64 c10 -45 20 -86 22 -92 2 -6 -21 -22 -51 -35 -198
-85 -401 -272 -513 -471 -35 -64 -74 -160 -97 -242 -17 -60 -25 -68 -44 -44
-6 8 -24 19 -40 25 -27 12 -29 17 -46 133 l-19 120 55 48 c30 26 200 181 379
343 179 163 327 296 330 297 3 0 13 -37 24 -82z m-2410 -239 c3 -3 -40 -198
-94 -434 -55 -237 -100 -443 -100 -460 0 -33 23 -67 57 -84 15 -8 162 -11 478
-11 l456 0 -6 -37 c-16 -95 -67 -233 -117 -317 -145 -244 -398 -406 -678 -434
-163 -17 -321 10 -468 79 -393 183 -600 619 -492 1034 39 154 117 290 231 404
135 137 291 220 484 257 67 12 237 15 249 3z m272 -70 c213 -95 399 -297 476
-519 15 -44 48 -177 48 -196 0 -2 -171 -4 -380 -4 -297 0 -380 3 -380 13 -1
39 166 727 176 727 6 0 33 -10 60 -21z m1310 -721 c67 -35 144 -122 144 -164
0 -2 -121 -4 -270 -4 l-270 0 0 101 0 101 173 -4 c164 -3 174 -4 223 -30z"/>
<path d="M4971 1306 c-87 -48 -51 -186 49 -186 38 0 71 22 89 57 43 85 -53
176 -138 129z"/>
<path d="M2297 295 c-65 -66 -22 -167 71 -167 48 0 92 46 92 98 0 81 -105 126
-163 69z"/>
</g>
</svg>
