<?xml version="1.0" standalone="no"?>
<!DOCTYPE svg PUBLIC "-//W3C//DTD SVG 20010904//EN"
 "http://www.w3.org/TR/2001/REC-SVG-20010904/DTD/svg10.dtd">
<svg version="1.0" xmlns="http://www.w3.org/2000/svg"
 width="512.000000pt" height="512.000000pt" viewBox="0 0 512.000000 512.000000"
 preserveAspectRatio="xMidYMid meet">

<g transform="translate(0.000000,512.000000) scale(0.100000,-0.100000)"
fill="#000000" stroke="none">
<path d="M2464 5095 c-33 -17 -232 -197 -614 -555 l-565 -529 -6 222 c-3 122
-6 223 -7 224 -1 1 -12 11 -24 23 -21 19 -33 20 -347 20 -358 -1 -354 0 -371
-61 -6 -20 -10 -263 -10 -589 l0 -555 -231 -215 c-127 -118 -244 -230 -260
-248 l-29 -33 0 -230 0 -230 26 -26 c40 -40 71 -27 182 76 l97 89 27 -57 c15
-32 36 -65 47 -75 19 -18 19 -18 -14 -62 -38 -49 -65 -127 -65 -184 0 -56 27
-135 63 -182 l33 -43 -33 -43 c-36 -47 -63 -126 -63 -182 0 -56 27 -135 63
-182 l33 -43 -33 -43 c-36 -47 -63 -126 -63 -182 0 -56 27 -135 63 -182 l33
-43 -33 -43 c-36 -47 -63 -126 -63 -182 0 -56 27 -135 63 -182 l33 -43 -33
-43 c-114 -149 -63 -367 105 -449 l57 -28 2035 0 2035 0 57 28 c168 82 219
300 105 449 l-33 43 33 43 c36 47 63 126 63 182 0 56 -27 135 -63 182 l-33 43
33 43 c36 47 63 126 63 182 0 56 -27 135 -63 182 l-33 43 33 43 c36 47 63 126
63 182 0 56 -27 135 -63 182 l-33 43 33 43 c36 47 63 126 63 182 0 57 -27 135
-65 184 -33 44 -33 44 -14 62 11 10 32 43 47 75 l27 57 103 -94 c112 -103 135
-112 177 -69 l25 24 0 228 c0 188 -3 232 -15 250 -8 12 -551 523 -1205 1135
-798 746 -1207 1122 -1241 1141 -67 35 -127 36 -195 2z m214 -207 c49 -46 585
-546 1190 -1113 l1102 -1029 0 -104 0 -103 -367 344 c-1947 1822 -2006 1877
-2043 1877 -32 0 -79 -41 -625 -552 -324 -303 -859 -803 -1188 -1110 l-597
-559 0 103 0 103 792 740 c435 407 971 908 1190 1113 333 311 404 372 428 372
22 0 49 -19 118 -82z m813 -1170 l923 -863 -927 -3 c-510 -1 -1344 -1 -1853 0
l-927 3 923 863 c508 474 926 862 930 862 5 0 423 -388 931 -862z m-2371 385
l0 -248 -167 -155 c-91 -85 -190 -177 -219 -203 l-54 -49 0 451 0 451 220 0
220 0 0 -247z m-450 -1423 c45 -23 80 -80 80 -131 0 -45 -36 -103 -80 -128
-47 -26 -90 -27 -140 -1 -45 23 -80 80 -80 130 0 48 35 107 78 129 48 26 93
26 142 1z m1810 -130 l0 -150 -479 0 c-469 0 -479 0 -505 -21 -36 -28 -36 -80
0 -108 l27 -21 1367 0 1367 0 -18 -52 c-10 -29 -18 -73 -18 -98 0 -25 8 -69
18 -97 l18 -53 -1697 0 -1697 0 18 53 c10 28 18 72 18 97 0 25 -8 69 -18 98
l-18 52 202 0 c183 0 205 2 226 19 32 26 32 86 0 112 -21 17 -43 19 -226 19
l-202 0 18 53 c10 28 18 72 18 97 0 25 -8 69 -18 98 l-18 52 809 0 808 0 0
-150z m1759 98 c-23 -67 -23 -129 0 -195 l18 -53 -809 0 -808 0 0 150 0 150
808 0 809 0 -18 -52z m351 32 c45 -23 80 -80 80 -131 0 -45 -36 -103 -80 -128
-47 -26 -90 -27 -140 -1 -45 23 -80 80 -80 130 0 48 35 107 78 129 48 26 93
26 142 1z m-3920 -450 c45 -23 80 -80 80 -131 0 -72 -77 -149 -149 -149 -77 0
-151 74 -151 150 0 48 35 107 78 129 48 26 93 26 142 1z m3920 0 c45 -23 80
-80 80 -131 0 -72 -77 -149 -149 -149 -77 0 -151 74 -151 150 0 48 35 107 78
129 48 26 93 26 142 1z m-3920 -450 c45 -23 80 -80 80 -131 0 -72 -77 -149
-149 -149 -77 0 -151 74 -151 150 0 48 35 107 78 129 48 26 93 26 142 1z
m1210 -130 l0 -150 -508 0 -509 0 18 53 c10 28 18 72 18 97 0 25 -8 69 -18 98
l-18 52 509 0 508 0 0 -150z m1200 -675 l0 -825 -520 0 -520 0 0 825 0 825
520 0 520 0 0 -825z m1159 773 c-23 -67 -23 -129 0 -195 l18 -53 -509 0 -508
0 0 150 0 150 508 0 509 0 -18 -52z m351 32 c45 -23 80 -80 80 -131 0 -72 -77
-149 -149 -149 -77 0 -151 74 -151 150 0 48 35 107 78 129 48 26 93 26 142 1z
m-3920 -450 c45 -23 80 -80 80 -131 0 -72 -77 -149 -149 -149 -77 0 -151 74
-151 150 0 48 35 107 78 129 48 26 93 26 142 1z m1210 -130 l0 -150 -508 0
-509 0 18 53 c10 28 18 72 18 97 0 25 -8 69 -18 98 l-18 52 509 0 508 0 0
-150z m2359 98 c-23 -67 -23 -129 0 -195 l18 -53 -509 0 -508 0 0 150 0 150
508 0 509 0 -18 -52z m351 32 c45 -23 80 -80 80 -131 0 -72 -77 -149 -149
-149 -77 0 -151 74 -151 150 0 48 35 107 78 129 48 26 93 26 142 1z m-3920
-450 c45 -23 80 -80 80 -131 0 -45 -36 -103 -80 -128 -47 -26 -90 -27 -140 -1
-45 23 -80 80 -80 130 0 48 35 107 78 129 48 26 93 26 142 1z m1210 -130 l0
-150 -508 0 -509 0 18 53 c10 28 18 72 18 97 0 25 -8 69 -18 98 l-18 52 509 0
508 0 0 -150z m2359 98 c-23 -67 -23 -129 0 -195 l18 -53 -509 0 -508 0 0 150
0 150 508 0 509 0 -18 -52z m351 32 c45 -23 80 -80 80 -131 0 -72 -77 -149
-149 -149 -77 0 -151 74 -151 150 0 48 35 107 78 129 48 26 93 26 142 1z
m-3920 -450 c45 -23 80 -80 80 -131 0 -72 -77 -149 -149 -149 -77 0 -151 74
-151 150 0 48 35 107 78 129 48 26 93 26 142 1z m1210 -130 l0 -150 -508 0
-509 0 18 53 c10 28 18 72 18 97 0 25 -8 69 -18 98 l-18 52 509 0 508 0 0
-150z m2359 98 c-23 -67 -23 -129 0 -195 l18 -53 -509 0 -508 0 0 150 0 150
508 0 509 0 -18 -52z m351 32 c45 -23 80 -80 80 -131 0 -72 -77 -149 -149
-149 -77 0 -151 74 -151 150 0 48 35 107 78 129 48 26 93 26 142 1z"/>
<path d="M2449 3882 c-103 -34 -176 -97 -226 -196 -38 -73 -44 -207 -14 -287
116 -308 539 -334 683 -41 31 62 33 74 33 167 0 93 -2 105 -33 167 -40 82
-111 149 -190 179 -79 30 -182 34 -253 11z m212 -160 c34 -17 65 -44 84 -71
28 -39 30 -50 30 -126 0 -76 -2 -87 -30 -126 -40 -56 -120 -99 -185 -99 -65 0
-145 43 -185 99 -28 39 -30 50 -30 126 0 76 2 87 30 126 40 56 120 99 185 99
33 0 64 -9 101 -28z"/>
<path d="M2812 1030 c-30 -28 -30 -82 0 -110 47 -43 118 -10 118 55 0 41 -32
75 -70 75 -14 0 -36 -9 -48 -20z"/>
</g>
</svg>
