<?xml version="1.0" standalone="no"?>
<!DOCTYPE svg PUBLIC "-//W3C//DTD SVG 20010904//EN"
 "http://www.w3.org/TR/2001/REC-SVG-20010904/DTD/svg10.dtd">
<svg version="1.0" xmlns="http://www.w3.org/2000/svg"
 width="512.000000pt" height="512.000000pt" viewBox="0 0 512.000000 512.000000"
 preserveAspectRatio="xMidYMid meet">

<g transform="translate(0.000000,512.000000) scale(0.100000,-0.100000)"
fill="#000000" stroke="none">
<path d="M205 4282 c-65 -22 -109 -54 -146 -105 -60 -83 -59 -68 -59 -904 0
-480 4 -771 10 -783 23 -43 116 -40 134 5 3 9 6 237 6 506 l0 489 1888 0 1888
0 28 -67 c16 -38 30 -74 33 -80 4 -10 -53 -13 -266 -13 -300 0 -316 -3 -380
-63 -65 -62 -71 -87 -71 -321 0 -128 4 -223 11 -247 16 -50 61 -105 112 -132
l42 -22 725 -5 c573 -4 730 -8 748 -18 42 -24 62 -71 62 -144 l0 -68 -90 0
c-177 0 -239 -59 -240 -224 0 -99 24 -155 83 -194 35 -24 52 -27 143 -30 l104
-4 0 -74 0 -74 -276 0 -276 0 -44 38 c-125 111 -312 157 -469 117 -86 -23
-132 -45 -208 -103 l-68 -52 -280 0 -279 0 0 727 c0 717 0 727 -21 770 -25 51
-76 96 -128 112 -24 7 -126 11 -273 11 -227 0 -236 -1 -279 -23 -57 -30 -104
-93 -118 -157 -7 -34 -11 -281 -11 -745 l0 -695 -356 0 -355 0 -55 44 c-129
105 -291 147 -446 115 -74 -15 -185 -70 -240 -118 l-46 -41 -296 0 -296 0 0
254 c0 241 -1 255 -21 280 -29 36 -80 36 -109 -1 -21 -27 -21 -32 -18 -408 l3
-380 28 -56 c32 -66 99 -132 165 -162 41 -19 70 -22 235 -27 l188 -5 23 -57
c48 -117 142 -216 261 -273 350 -168 755 87 755 475 0 67 -14 140 -35 193 -7
16 43 17 955 17 912 0 962 -1 955 -17 -16 -40 -35 -120 -35 -150 l0 -33 -790
0 c-568 0 -796 -3 -814 -11 -34 -16 -47 -57 -31 -96 7 -16 20 -33 30 -37 9 -3
378 -6 819 -6 l802 0 13 -37 c36 -103 116 -203 213 -267 271 -178 651 -59 773
241 l23 58 169 5 c144 5 175 8 215 27 66 30 133 96 165 162 l28 56 3 493 c3
579 4 571 -82 657 -74 75 -114 85 -330 85 -120 1 -183 5 -211 15 -74 26 -98
66 -256 435 l-148 345 197 5 c187 5 199 6 242 30 102 57 137 184 77 283 -31
51 -174 176 -288 253 -155 103 -317 171 -518 215 -84 19 -138 22 -431 26 -332
5 -335 5 -362 -17 -35 -27 -38 -78 -7 -106 20 -18 45 -19 353 -25 359 -6 404
-12 581 -70 177 -59 378 -184 504 -312 46 -47 53 -59 47 -81 -4 -16 -17 -31
-32 -36 -16 -6 -815 -10 -2165 -10 l-2139 0 0 198 c0 225 6 249 76 289 l39 23
1231 0 c1224 0 1230 0 1252 20 32 30 30 82 -4 109 -27 21 -27 21 -1258 21
-1142 -1 -1235 -2 -1281 -18z m2695 -1122 c20 -20 20 -33 20 -735 l0 -715
-265 0 -265 0 0 694 c0 459 4 704 10 723 20 51 27 53 262 53 205 0 219 -1 238
-20z m1230 -147 c40 -93 88 -201 106 -242 19 -41 34 -75 34 -77 0 -2 -180 -4
-400 -4 l-401 0 -24 25 c-25 24 -25 25 -25 218 0 181 1 196 21 221 l20 26 299
0 298 0 72 -167z m840 -928 l0 -75 -78 0 c-47 0 -83 5 -90 12 -16 16 -16 125
1 131 6 3 47 6 90 6 l77 1 0 -75z m-3686 -388 c79 -36 157 -114 192 -190 26
-55 29 -73 29 -157 0 -83 -4 -103 -29 -157 -54 -117 -177 -206 -302 -219 -247
-26 -461 200 -414 438 29 148 114 247 256 298 80 28 189 23 268 -13z m2847 17
c103 -30 185 -98 233 -192 114 -225 -15 -490 -266 -543 -161 -35 -343 59 -414
214 -25 54 -29 74 -29 157 0 83 3 102 28 155 81 173 270 261 448 209z m-3491
-159 c0 -3 -7 -31 -15 -63 -8 -31 -17 -74 -20 -94 l-6 -38 -155 0 c-164 0
-203 9 -246 57 -23 25 -48 86 -48 118 l0 25 245 0 c135 0 245 -2 245 -5z
m4330 -20 c0 -31 -25 -93 -48 -119 -39 -43 -89 -56 -229 -56 l-132 0 -6 38
c-3 20 -12 63 -20 94 -8 32 -15 60 -15 63 0 3 101 5 225 5 l225 0 0 -25z"/>
<path d="M2540 2430 c-30 -30 -27 -83 6 -109 48 -38 141 -23 163 26 16 34 14
47 -10 77 -18 23 -28 26 -80 26 -46 0 -63 -4 -79 -20z"/>
<path d="M1077 1565 c-60 -15 -93 -39 -132 -94 -27 -39 -30 -50 -30 -120 0
-68 3 -83 28 -119 43 -65 97 -96 178 -100 59 -4 74 -1 118 23 145 79 158 285
24 378 -35 24 -51 29 -115 41 -13 2 -45 -2 -71 -9z m113 -173 c25 -32 25 -53
-1 -86 -39 -50 -129 -23 -129 38 0 39 11 57 43 71 38 16 62 9 87 -23z"/>
<path d="M3981 1569 c-169 -32 -237 -248 -117 -371 52 -54 97 -71 176 -66 80
4 134 35 177 99 31 47 42 136 24 191 -34 103 -150 168 -260 147z m109 -179
c28 -53 -5 -110 -64 -110 -37 0 -76 36 -76 69 0 24 29 61 54 70 27 10 73 -6
86 -29z"/>
<path d="M380 3950 c-30 -30 -27 -83 6 -109 26 -21 36 -21 485 -21 319 0 466
3 483 11 51 23 55 103 7 128 -13 7 -178 11 -490 11 -458 0 -472 -1 -491 -20z"/>
<path d="M1602 3947 c-29 -31 -28 -72 3 -102 21 -22 33 -25 103 -25 97 0 132
20 132 76 0 59 -26 74 -128 74 -80 0 -91 -2 -110 -23z"/>
<path d="M502 3317 c-50 -19 -98 -62 -121 -110 -19 -40 -21 -60 -21 -271 0
-204 2 -231 19 -264 27 -52 79 -99 130 -117 62 -22 390 -22 452 0 52 19 102
64 132 120 21 38 22 53 22 260 0 210 -1 222 -23 268 -28 55 -78 100 -131 116
-52 15 -415 14 -459 -2z m437 -156 c27 -27 33 -84 29 -265 l-3 -158 -28 -24
c-27 -23 -33 -24 -201 -24 -160 0 -175 2 -200 21 l-26 20 0 205 c0 191 1 205
20 224 19 19 33 20 205 20 169 0 187 -2 204 -19z"/>
<path d="M1434 3311 c-51 -23 -108 -90 -124 -144 -8 -29 -10 -112 -8 -253 l3
-211 30 -49 c19 -30 49 -60 79 -79 l49 -30 216 0 c204 0 218 1 258 22 51 27
96 82 112 132 14 49 15 422 0 474 -13 49 -73 115 -124 138 -35 16 -68 19 -245
19 -178 0 -210 -3 -246 -19z m455 -157 c20 -25 21 -40 21 -219 0 -257 16 -239
-210 -243 -187 -4 -220 2 -239 44 -7 16 -11 94 -11 210 0 249 -15 234 234 234
l185 0 20 -26z"/>
</g>
</svg>
