<?xml version="1.0" standalone="no"?>
<!DOCTYPE svg PUBLIC "-//W3C//DTD SVG 20010904//EN"
 "http://www.w3.org/TR/2001/REC-SVG-20010904/DTD/svg10.dtd">
<svg version="1.0" xmlns="http://www.w3.org/2000/svg"
 width="512.000000pt" height="512.000000pt" viewBox="0 0 512.000000 512.000000"
 preserveAspectRatio="xMidYMid meet">

<g transform="translate(0.000000,512.000000) scale(0.100000,-0.100000)"
fill="#000000" stroke="none">
<path d="M1265 3955 c-33 -7 -86 -23 -117 -35 -172 -64 -332 -238 -392 -425
-29 -91 -196 -1160 -196 -1254 0 -139 40 -268 115 -372 l35 -49 -220 0 -220 0
0 43 c0 57 -22 87 -64 87 -45 0 -66 -26 -66 -83 l0 -47 -45 0 c-51 0 -95 -32
-95 -70 0 -38 44 -70 95 -70 l45 0 0 -245 c0 -232 1 -246 20 -265 26 -26 60
-25 88 0 21 20 22 27 22 265 l0 245 305 0 c280 0 309 -2 343 -19 20 -10 69
-29 107 -42 70 -23 72 -23 681 -27 l610 -3 11 -54 c51 -242 306 -416 554 -378
161 25 303 129 372 273 19 41 38 94 42 118 l7 42 723 0 c443 0 743 4 775 10
118 22 224 99 275 199 45 90 46 115 43 1021 l-3 855 -32 67 c-40 85 -106 151
-191 191 l-67 32 -1750 2 c-1424 1 -1761 -1 -1810 -12z m3582 -150 c28 -15 63
-42 78 -60 56 -75 55 -59 55 -655 l0 -550 -265 0 -264 0 -3 313 -3 312 -26 55
c-14 30 -45 73 -68 96 -84 82 -162 104 -381 104 -217 0 -307 -26 -387 -113
-87 -94 -93 -124 -93 -479 l0 -288 -1373 0 c-756 0 -1376 2 -1378 5 -6 5 124
815 141 883 44 175 181 319 360 379 l65 22 1746 0 1745 1 51 -25z m-652 -544
c57 -26 101 -79 114 -141 7 -34 11 -271 11 -720 l0 -670 -345 0 -345 0 0 700
c0 669 1 702 19 738 10 20 30 47 43 59 49 46 81 52 278 52 158 1 191 -2 225
-18z m-705 -1191 l0 -340 -104 0 -105 0 -20 55 c-12 30 -31 81 -42 113 -12 31
-31 67 -42 80 l-20 22 -349 0 c-319 0 -349 -1 -366 -18 -9 -9 -37 -70 -61
-135 l-43 -117 -602 0 c-489 0 -611 3 -655 15 -142 37 -262 134 -328 263 -61
118 -75 232 -46 375 l6 27 1388 0 1389 0 0 -340z m1490 195 l0 -145 -80 0
c-194 0 -327 -121 -345 -315 l-7 -75 -49 0 -49 0 0 340 0 340 265 0 265 0 0
-145z m0 -312 c-1 -72 -61 -161 -135 -200 -16 -9 -57 -18 -92 -21 l-63 -5 0
53 c0 93 52 169 135 198 17 6 58 11 93 11 l62 1 0 -37z m-1850 -208 c42 -111
43 -116 31 -171 -21 -107 -99 -205 -200 -253 -48 -22 -69 -26 -151 -26 -82 0
-103 4 -152 27 -73 34 -143 104 -175 175 -36 79 -40 129 -14 197 11 31 30 81
42 111 l20 55 279 0 278 0 42 -115z"/>
<path d="M1228 3406 c-31 -6 -64 -18 -75 -26 -73 -56 -113 -111 -127 -175 -15
-71 -63 -470 -58 -484 3 -9 12 -24 20 -33 14 -17 69 -18 879 -18 707 0 870 2
896 14 38 16 84 66 95 104 9 35 9 469 0 504 -10 35 -53 85 -92 106 -28 16 -92
17 -756 19 -543 1 -739 -1 -782 -11z m722 -366 l0 -240 -420 0 c-329 0 -420 3
-420 13 0 6 11 95 25 197 38 285 11 270 473 270 l342 0 0 -240z m768 228 c9
-9 12 -74 12 -230 0 -206 -1 -218 -20 -228 -12 -7 -125 -9 -322 -8 l-303 3 -3
238 -2 237 313 0 c230 0 316 -3 325 -12z"/>
<path d="M3717 2669 c-43 -25 -37 -97 9 -118 49 -22 134 -10 156 23 14 21 8
66 -12 86 -15 15 -33 20 -77 20 -32 0 -66 -5 -76 -11z"/>
<path d="M2725 1834 c-86 -44 -135 -139 -116 -223 32 -143 185 -211 306 -136
70 43 98 99 93 187 -3 57 -8 73 -34 105 -45 56 -98 83 -164 83 -30 0 -68 -7
-85 -16z m130 -139 c14 -13 25 -33 25 -43 0 -31 -38 -72 -68 -72 -33 0 -72 36
-72 67 0 30 42 73 70 73 12 0 32 -11 45 -25z"/>
</g>
</svg>
