<?xml version="1.0" standalone="no"?>
<!DOCTYPE svg PUBLIC "-//W3C//DTD SVG 20010904//EN"
 "http://www.w3.org/TR/2001/REC-SVG-20010904/DTD/svg10.dtd">
<svg version="1.0" xmlns="http://www.w3.org/2000/svg"
 width="512.000000pt" height="512.000000pt" viewBox="0 0 512.000000 512.000000"
 preserveAspectRatio="xMidYMid meet">

<g transform="translate(0.000000,512.000000) scale(0.100000,-0.100000)"
fill="#000000" stroke="none">
<path d="M1465 4947 c-109 -37 -186 -103 -232 -202 -24 -51 -28 -73 -28 -145
0 -72 4 -94 28 -146 36 -77 104 -145 182 -181 51 -24 73 -28 145 -28 72 0 94
4 145 28 78 36 146 104 182 181 24 52 28 74 28 146 0 72 -4 94 -28 146 -57
123 -177 204 -311 211 -41 1 -88 -3 -111 -10z m189 -172 c154 -73 129 -318
-37 -364 -154 -44 -289 91 -247 247 13 51 75 117 122 131 46 14 116 8 162 -14z"/>
<path d="M2585 4340 l-420 -420 58 -57 57 -58 380 380 380 380 263 -263 263
-262 119 0 120 0 527 -527 528 -528 57 58 58 57 -550 550 -550 550 -120 0
-120 0 -280 280 c-259 258 -284 280 -315 280 -32 0 -64 -30 -455 -420z"/>
<path d="M1416 3571 l-429 -429 29 -34 c16 -18 42 -44 57 -57 l29 -24 389 389
389 389 368 -368 367 -367 58 58 57 57 -408 408 c-379 378 -410 407 -442 407
-32 0 -64 -30 -464 -429z"/>
<path d="M925 3600 l-161 -160 -116 0 -116 0 -211 -169 -211 -169 47 -59 c26
-32 48 -60 49 -62 2 -2 88 65 192 148 l190 151 123 0 122 0 148 146 148 147
51 -38 c28 -20 53 -35 56 -33 2 3 24 31 48 64 l44 58 -91 68 c-65 49 -99 68
-121 68 -25 0 -54 -24 -191 -160z"/>
<path d="M2465 2998 c-694 -42 -688 -41 -701 -95 -15 -59 -4 -69 286 -234
l275 -158 56 -568 c46 -458 61 -579 78 -624 18 -46 28 -137 61 -530 22 -261
40 -480 40 -487 0 -24 48 -62 78 -62 54 0 69 24 136 225 73 219 66 224 92 -65
10 -118 21 -193 30 -207 27 -42 102 -42 127 0 8 12 67 218 132 458 l118 435
125 38 c68 20 125 36 126 34 2 -2 8 -22 14 -45 28 -96 122 -187 225 -218 31
-9 91 -15 152 -15 l101 0 74 -337 c81 -366 88 -383 148 -383 46 0 70 28 92
105 11 38 20 73 20 76 0 4 -13 11 -28 17 -28 9 -29 14 -90 288 -34 152 -60
279 -58 281 2 2 21 -3 42 -12 l39 -15 118 -355 c89 -267 124 -359 140 -370 32
-22 74 -19 102 10 l25 24 0 466 c0 303 -4 473 -10 486 -6 10 -42 35 -80 54
l-70 35 0 174 0 174 128 4 c117 3 132 6 194 35 37 17 87 50 112 74 63 57 114
163 123 251 5 62 4 68 -20 92 l-26 26 -988 0 -988 0 -88 233 c-48 129 -87 236
-87 239 0 3 33 8 72 11 191 16 347 170 365 360 5 61 4 67 -20 91 -33 32 24 34
-792 -16z m621 -157 c-22 -41 -89 -96 -135 -109 -21 -7 -89 -12 -150 -12 -105
0 -113 -1 -136 -25 -14 -13 -25 -34 -25 -46 0 -40 249 -693 272 -711 19 -17
68 -18 714 -18 l694 0 0 -371 c0 -237 4 -377 10 -390 6 -10 42 -35 80 -54 l70
-35 -1 -163 -1 -162 -43 128 c-24 71 -49 134 -54 141 -6 7 -53 29 -104 50
-121 47 -178 84 -215 138 -53 77 -62 121 -62 308 l0 170 -80 0 -80 0 0 -129 0
-129 -47 -16 c-27 -8 -219 -66 -428 -127 -332 -99 -389 -113 -455 -113 -66 -1
-84 3 -142 32 -73 36 -115 80 -150 159 -18 40 -30 141 -80 633 -32 322 -62
595 -67 606 -6 14 -77 60 -183 120 l-173 99 45 3 c210 14 819 50 873 51 l68 1
-15 -29z m1774 -937 c0 -27 -101 -119 -146 -132 -23 -7 -85 -12 -138 -12 l-96
0 0 80 0 80 190 0 c166 0 190 -2 190 -16z m-905 -823 l37 -41 -83 0 c-95 0
-152 20 -187 64 -20 26 -48 94 -40 101 1 2 41 14 88 28 l85 24 31 -67 c17 -37
48 -86 69 -109z m-1184 -60 c41 -13 42 -16 55 -198 l7 -93 -58 20 c-70 24 -75
24 -75 5 0 -8 -4 -15 -9 -15 -4 0 -11 44 -15 98 -4 53 -9 128 -13 165 l-6 69
39 -20 c21 -10 55 -25 75 -31z m317 -8 c-3 -10 -23 -82 -44 -160 -21 -78 -40
-140 -42 -138 -7 7 -31 279 -26 285 6 5 81 27 103 29 8 0 11 -6 9 -16z"/>
<path d="M308 2593 c-114 -114 -208 -212 -208 -218 0 -13 92 -105 105 -105 5
0 67 57 137 127 l128 128 0 -125 0 -125 -185 -185 c-102 -102 -185 -190 -185
-195 0 -13 92 -105 105 -105 5 0 67 57 137 127 l128 128 0 -125 0 -125 -185
-185 c-102 -102 -185 -190 -185 -195 0 -13 92 -105 105 -105 5 0 67 57 137
127 l128 128 0 -125 0 -125 -185 -185 c-102 -102 -185 -190 -185 -195 0 -13
92 -105 105 -105 5 0 67 57 137 127 l128 128 0 -423 0 -422 80 0 80 0 0 422 0
423 130 -130 130 -130 57 58 58 57 -188 188 -187 187 0 125 0 125 130 -130
130 -130 57 58 58 57 -188 188 -187 187 0 125 0 125 130 -130 130 -130 57 58
58 57 -188 188 -187 187 0 125 0 125 130 -130 130 -130 58 58 57 57 -210 210
c-192 191 -214 210 -245 210 -31 0 -53 -19 -242 -207z"/>
<path d="M1196 2271 l-210 -210 49 -54 c28 -30 54 -55 60 -56 5 -1 67 56 137
126 l128 128 0 -125 0 -125 -187 -187 -187 -187 50 -54 c27 -30 53 -55 59 -56
5 -1 67 56 137 126 l128 128 0 -125 0 -125 -187 -187 -187 -187 50 -54 c27
-30 53 -55 59 -56 5 -1 67 56 137 126 l128 128 0 -125 0 -125 -187 -187 -188
-188 58 -57 57 -58 130 130 130 130 0 -263 0 -262 80 0 80 0 0 262 0 263 130
-130 130 -130 57 58 58 57 -188 188 -187 187 0 125 0 125 128 -128 c70 -70
132 -127 137 -126 6 1 32 26 59 56 l50 54 -187 187 -187 187 0 125 0 125 128
-128 c70 -70 132 -127 137 -126 6 1 32 26 59 56 l50 54 -187 187 -187 187 0
125 0 125 128 -128 c70 -70 132 -127 137 -126 6 1 32 26 60 56 l49 54 -210
210 c-191 190 -213 209 -244 209 -31 0 -53 -19 -244 -209z"/>
</g>
</svg>
