<?xml version="1.0" standalone="no"?>
<!DOCTYPE svg PUBLIC "-//W3C//DTD SVG 20010904//EN"
 "http://www.w3.org/TR/2001/REC-SVG-20010904/DTD/svg10.dtd">
<svg version="1.0" xmlns="http://www.w3.org/2000/svg"
 width="512.000000pt" height="512.000000pt" viewBox="0 0 512.000000 512.000000"
 preserveAspectRatio="xMidYMid meet">

<g transform="translate(0.000000,512.000000) scale(0.100000,-0.100000)"
fill="#000000" stroke="none">
<path d="M320 4947 c-49 -16 -133 -102 -148 -153 -17 -60 -17 -2168 0 -2228
16 -55 99 -138 154 -154 29 -8 151 -12 417 -12 l376 0 3 -827 3 -828 27 -80
c40 -117 92 -200 183 -290 91 -91 175 -143 290 -183 l80 -27 1520 -3 c1183 -2
1530 0 1565 10 59 16 141 96 158 154 15 53 15 175 0 228 -16 55 -99 138 -154
154 -31 9 -247 12 -863 12 -606 0 -828 3 -844 12 -52 27 -62 83 -22 123 l24
25 312 0 c215 0 324 4 353 12 55 16 138 99 154 154 8 29 12 144 12 382 l0 341
53 24 c69 31 123 86 155 156 22 47 27 75 32 176 l5 120 30 3 c54 5 179 40 239
67 198 88 374 266 454 458 65 158 65 166 70 607 4 469 4 469 -72 545 -57 57
-103 75 -189 75 l-56 0 -3 363 -3 362 -34 63 c-38 69 -80 110 -151 144 -66 32
-196 31 -265 -2 -63 -31 -124 -91 -155 -155 l-25 -50 -3 -362 -3 -363 -159 0
-159 0 -3 363 -3 362 -34 63 c-38 69 -80 110 -151 144 -66 32 -196 31 -265 -2
-63 -31 -124 -91 -155 -155 l-25 -50 -3 -362 -3 -363 -56 0 c-31 0 -74 -5 -97
-12 -55 -16 -138 -99 -154 -154 -19 -65 -17 -755 3 -869 63 -358 353 -648 710
-709 l70 -12 6 -125 c5 -108 9 -131 32 -176 35 -69 88 -120 154 -150 l53 -24
0 -340 0 -340 -25 -24 -24 -25 -312 0 c-215 0 -324 -4 -353 -12 -59 -18 -138
-99 -155 -161 -31 -111 21 -226 129 -283 33 -18 80 -19 888 -24 l854 -5 19
-24 c15 -18 19 -39 19 -93 0 -60 -3 -72 -25 -94 l-24 -24 -1513 2 -1513 3 -58
22 c-199 76 -342 239 -376 427 -7 39 -11 331 -11 843 l0 783 376 0 c267 0 389
4 418 12 55 16 138 99 154 154 17 60 17 2168 0 2228 -16 55 -99 138 -154 154
-56 16 -1702 15 -1754 -1z m1735 -172 l25 -24 0 -1071 0 -1071 -25 -24 -24
-25 -831 0 -831 0 -24 25 -25 24 0 1071 0 1071 25 24 24 25 831 0 831 0 24
-25z m1393 -2 c14 -10 35 -32 46 -47 20 -27 21 -41 24 -497 l3 -469 -161 0
-160 0 0 454 c0 298 4 464 11 483 14 37 47 72 84 89 40 19 119 12 153 -13z
m960 0 c14 -10 35 -32 46 -47 20 -27 21 -41 24 -497 l3 -469 -161 0 -160 0 0
454 c0 298 4 464 11 483 14 37 47 72 84 89 40 19 119 12 153 -13z m-1368
-1028 c0 -88 2 -98 25 -120 l24 -25 271 0 271 0 24 25 c23 22 25 32 25 120 l0
95 160 0 160 0 0 -95 c0 -88 2 -98 25 -120 l24 -25 271 0 271 0 24 25 c23 22
25 32 25 120 l0 95 55 0 c46 0 60 -4 80 -25 l25 -24 0 -365 c0 -401 -6 -461
-58 -585 -53 -125 -155 -247 -272 -325 -67 -44 -189 -92 -257 -101 l-50 -7
-12 59 c-19 98 -78 174 -175 226 -60 32 -212 32 -272 0 -97 -52 -156 -128
-175 -226 l-12 -59 -51 7 c-127 16 -287 105 -389 215 -78 85 -121 156 -161
267 l-31 88 -3 402 -3 403 25 25 c21 21 35 25 81 25 l55 0 0 -95z m888 -1212
c14 -10 35 -32 46 -47 20 -26 21 -41 21 -246 0 -241 -1 -243 -69 -294 -39 -29
-133 -29 -172 0 -67 49 -69 57 -72 267 -2 106 -1 206 3 224 7 40 49 91 90 109
40 19 120 12 153 -13z"/>
<path d="M1157 4549 c-23 -14 -517 -1001 -517 -1034 0 -14 11 -37 25 -50 24
-25 24 -25 240 -25 l215 0 0 -295 0 -296 25 -24 c25 -26 63 -32 96 -15 24 14
519 1000 519 1035 0 14 -11 37 -25 50 -24 25 -24 25 -240 25 l-215 0 0 295 0
296 -25 24 c-25 26 -67 32 -98 14z m-8 -770 c21 -17 41 -19 212 -19 l189 0
-133 -265 -132 -266 -5 167 c-7 219 11 204 -241 204 l-189 0 133 265 132 266
5 -167 c5 -159 6 -167 29 -185z"/>
<path d="M3760 2240 l0 -80 80 0 80 0 0 80 0 80 -80 0 -80 0 0 -80z"/>
</g>
</svg>
