<?xml version="1.0" standalone="no"?>
<!DOCTYPE svg PUBLIC "-//W3C//DTD SVG 20010904//EN"
 "http://www.w3.org/TR/2001/REC-SVG-20010904/DTD/svg10.dtd">
<svg version="1.0" xmlns="http://www.w3.org/2000/svg"
 width="512.000000pt" height="512.000000pt" viewBox="0 0 512.000000 512.000000"
 preserveAspectRatio="xMidYMid meet">

<g transform="translate(0.000000,512.000000) scale(0.100000,-0.100000)"
fill="#000000" stroke="none">
<path d="M3965 5113 c-483 -63 -924 -226 -1313 -486 -121 -81 -182 -136 -182
-164 0 -11 9 -32 21 -47 35 -44 71 -36 181 42 250 179 538 319 833 406 124 36
329 80 425 91 51 6 45 2 -90 -53 -394 -162 -724 -355 -1040 -608 -148 -118
-446 -410 -557 -544 -164 -200 -319 -425 -437 -637 l-57 -102 -34 15 c-19 8
-51 14 -71 14 -25 0 -35 4 -31 13 157 405 353 724 636 1034 121 133 131 154
86 198 -45 46 -70 35 -169 -67 -302 -316 -553 -723 -705 -1146 l-37 -103 -63
-29 c-35 -17 -67 -30 -72 -30 -4 0 -50 54 -101 120 l-93 120 -6 138 c-5 119
-10 149 -38 231 l-31 93 45 50 c83 88 90 112 93 356 l3 212 202 0 c114 0 219
5 241 11 23 6 57 29 85 57 73 74 89 158 47 247 -28 60 -56 87 -116 114 -40 18
-65 21 -245 21 l-201 0 -37 50 c-67 89 -172 160 -292 196 -87 26 -239 24 -325
-6 -194 -66 -340 -222 -385 -411 -31 -134 -13 -218 55 -257 l30 -17 0 -122 c0
-67 5 -146 11 -175 18 -87 66 -175 128 -237 l57 -57 -33 -44 c-70 -95 -119
-270 -107 -380 2 -19 24 -255 49 -525 25 -269 50 -512 55 -540 14 -66 52 -148
101 -212 l39 -52 -204 -3 -204 -3 -38 -30 c-79 -65 -74 5 -74 -953 l0 -853 25
-24 c29 -30 64 -32 96 -6 l24 19 5 849 5 848 913 3 912 2 0 -845 0 -846 25
-24 c31 -32 69 -32 100 0 25 24 25 27 25 193 l0 169 98 -33 c125 -43 246 -58
392 -51 139 7 224 28 395 97 166 67 260 84 420 76 140 -6 194 -20 342 -82 174
-73 250 -88 443 -88 195 0 237 9 442 90 146 58 251 83 351 84 48 0 62 4 82 25
32 31 32 69 -1 102 -26 26 -28 26 -128 19 -130 -8 -197 -24 -348 -85 -167 -68
-223 -81 -358 -88 -156 -7 -250 10 -426 81 -202 80 -249 90 -439 90 -191 1
-260 -12 -435 -84 -184 -76 -222 -84 -400 -84 -169 0 -223 10 -357 66 l-73 31
0 118 c0 66 2 119 4 119 2 0 52 -22 112 -50 95 -43 118 -50 173 -50 111 0 205
68 235 170 l13 45 59 7 c79 10 147 31 294 90 160 65 257 82 415 74 140 -6 194
-20 342 -82 174 -73 250 -88 443 -88 195 0 237 9 442 90 146 58 251 83 351 84
48 0 62 4 82 25 32 31 32 69 -1 102 -26 26 -28 26 -128 19 -130 -8 -197 -24
-348 -85 -167 -68 -223 -81 -358 -88 -156 -7 -250 10 -426 81 -202 80 -249 90
-439 90 -191 1 -260 -12 -435 -84 -120 -50 -201 -74 -278 -83 -39 -5 -44 -3
-68 29 -14 18 -48 47 -75 64 l-49 30 0 128 c0 144 -9 184 -46 201 -35 16 -47
14 -78 -10 l-26 -20 0 -178 c0 -205 0 -206 95 -263 69 -41 92 -82 75 -133 -14
-43 -44 -65 -88 -65 -33 0 -243 90 -274 118 -17 14 -18 47 -18 416 0 362 -2
404 -18 435 -29 59 -62 76 -158 80 l-84 3 0 149 0 148 93 -33 c50 -18 134 -48
186 -67 153 -54 179 -87 190 -242 7 -107 18 -127 69 -127 64 0 88 52 78 172
-8 93 -24 144 -62 200 -52 74 -104 98 -529 243 -219 75 -401 138 -403 140 -2
2 53 31 124 64 151 72 184 96 221 159 25 41 28 57 28 132 l0 85 72 127 c404
713 994 1268 1715 1612 205 98 281 128 273 108 -21 -54 -55 -206 -65 -290 -20
-164 6 -343 69 -477 15 -33 74 -121 130 -195 143 -190 181 -277 196 -450 l7
-75 -47 -24 c-193 -101 -292 -481 -214 -820 11 -46 28 -104 39 -129 l20 -45
-35 -38 c-19 -21 -47 -62 -62 -91 -25 -48 -28 -63 -28 -158 0 -99 2 -110 32
-171 60 -121 133 -131 253 -35 38 31 72 56 75 56 3 0 33 -22 66 -50 33 -27 69
-55 81 -61 32 -17 105 -5 135 22 41 38 75 125 81 206 6 90 -9 151 -54 225 -34
57 -35 58 -18 90 63 121 88 267 81 465 -5 167 -24 247 -83 365 -35 70 -116
161 -153 173 -16 5 -20 20 -26 98 -16 200 -71 334 -216 523 -152 198 -183 281
-183 484 0 104 5 143 28 233 35 138 75 237 115 282 36 42 46 72 37 123 -15 94
-88 132 -221 115z m-3204 -323 c81 -16 173 -63 227 -117 61 -61 111 -161 119
-236 l6 -57 -422 0 -421 0 0 29 c0 53 40 159 79 212 50 66 96 103 165 135 90
41 159 50 247 34z m824 -285 c14 -13 25 -36 25 -50 0 -14 -11 -37 -25 -50 -23
-24 -28 -25 -175 -25 l-150 0 0 38 c0 20 -4 54 -9 75 l-9 37 160 0 c155 0 159
-1 183 -25z m-1067 -322 c-3 -47 -4 -48 -68 -85 -36 -21 -68 -38 -72 -38 -5 0
-8 38 -8 85 l0 85 76 0 75 0 -3 -47z m492 -143 c0 -170 -2 -195 -20 -229 -42
-84 -99 -105 -266 -99 -105 3 -125 7 -171 31 -58 30 -115 82 -138 126 -15 29
-14 29 28 54 23 13 65 36 93 50 90 46 134 115 134 215 l0 42 170 0 170 0 0
-190z m-282 -478 l143 -4 19 -39 c21 -39 53 -150 46 -156 -2 -2 -18 14 -36 37
-38 47 -67 57 -108 36 -40 -21 -51 -66 -25 -104 43 -67 426 -553 446 -567 41
-29 88 -18 246 55 83 39 164 70 179 70 33 0 69 -30 78 -64 13 -55 -13 -76
-227 -181 -226 -110 -278 -123 -363 -91 -56 21 -74 42 -261 296 -189 258 -200
270 -237 270 -42 0 -82 -43 -75 -80 4 -16 87 -138 187 -272 99 -134 180 -245
180 -248 0 -3 -92 -48 -205 -102 -113 -53 -205 -91 -205 -85 0 7 -20 219 -44
472 -32 336 -41 475 -36 517 14 101 106 267 139 252 9 -4 80 -9 159 -12z
m3641 -448 c41 -24 89 -102 118 -190 21 -65 27 -105 31 -219 6 -173 -11 -265
-68 -382 -49 -100 -51 -136 -9 -189 64 -80 87 -178 56 -246 l-12 -27 -67 56
c-54 44 -77 56 -113 61 -50 5 -67 -3 -152 -76 l-53 -44 -10 27 c-15 38 -12
130 5 170 8 20 37 59 65 89 62 65 72 104 42 162 -107 209 -103 539 8 732 31
53 79 92 113 92 11 0 31 -7 46 -16z m-3165 -724 c49 0 104 -14 288 -76 l228
-76 0 -174 0 -175 -457 3 c-454 3 -458 3 -508 26 -106 48 -178 121 -209 209
l-14 40 266 125 266 126 39 -14 c22 -8 67 -14 101 -14z"/>
<path d="M4267 2952 c-24 -26 -22 -85 3 -107 48 -44 120 -10 120 56 0 28 -6
42 -22 53 -30 22 -81 20 -101 -2z"/>
</g>
</svg>
