<?xml version="1.0" standalone="no"?>
<!DOCTYPE svg PUBLIC "-//W3C//DTD SVG 20010904//EN"
 "http://www.w3.org/TR/2001/REC-SVG-20010904/DTD/svg10.dtd">
<svg version="1.0" xmlns="http://www.w3.org/2000/svg"
 width="512.000000pt" height="512.000000pt" viewBox="0 0 512.000000 512.000000"
 preserveAspectRatio="xMidYMid meet">

<g transform="translate(0.000000,512.000000) scale(0.100000,-0.100000)"
fill="#000000" stroke="none">
<path d="M2905 4684 c-220 -54 -355 -230 -343 -448 8 -155 94 -283 237 -354
73 -36 78 -37 185 -37 100 0 117 3 170 28 276 129 342 476 132 689 -74 76
-172 119 -278 124 -46 1 -92 1 -103 -2z m192 -185 c97 -46 162 -164 148 -269
-10 -74 -60 -149 -124 -187 -134 -80 -292 -38 -366 97 -26 47 -30 65 -29 125
0 79 21 128 75 183 78 80 193 99 296 51z"/>
<path d="M1634 4081 c-59 -27 -88 -72 -123 -191 -17 -58 -42 -139 -56 -180
-126 -366 -365 -1115 -365 -1143 0 -49 12 -77 51 -115 35 -34 48 -40 249 -102
74 -22 188 -60 253 -82 l118 -41 -3 -251 c-3 -220 -5 -255 -21 -284 -10 -19
-140 -197 -289 -395 -149 -199 -281 -382 -292 -407 -32 -69 -30 -207 4 -275
84 -172 296 -228 458 -120 29 19 139 158 378 477 l338 450 21 85 21 86 89
-107 c140 -165 130 -128 131 -496 1 -299 2 -317 22 -356 51 -100 183 -175 309
-175 112 0 200 59 252 170 l26 56 3 453 c3 492 0 529 -53 617 -13 22 -121 146
-240 275 -125 136 -225 253 -237 280 -14 28 -24 70 -26 111 -4 60 2 83 49 223
l54 157 19 -28 c40 -57 111 -116 175 -147 l66 -31 340 -5 340 -5 3 -1057 2
-1057 26 -20 c43 -34 102 -21 123 26 8 17 11 326 11 1074 l0 1049 25 10 c43
16 113 89 131 136 39 102 -3 211 -103 269 l-52 30 -1 203 c0 202 0 203 -25
227 -32 33 -83 34 -113 2 -20 -22 -22 -34 -24 -222 l-3 -200 -145 -3 c-83 -2
-160 1 -180 7 -31 10 -54 40 -225 298 -104 157 -212 308 -239 335 -127 125
-297 158 -470 92 -10 -4 -20 8 -34 38 -23 54 -80 110 -136 137 -61 30 -493
141 -546 141 -25 0 -64 -9 -86 -19z m289 -191 c261 -69 282 -76 312 -112 24
-29 26 -37 22 -102 -3 -62 -37 -169 -60 -192 -4 -5 -574 152 -585 161 -7 6 82
280 92 287 16 11 10 12 219 -42z m754 -245 c87 -26 129 -75 344 -396 177 -266
203 -301 246 -326 l48 -28 252 -3 c249 -3 252 -3 277 -27 33 -30 33 -55 0 -86
l-26 -24 -381 0 -382 0 -53 29 c-60 34 -81 58 -152 182 -83 144 -189 308 -207
322 -26 19 -74 14 -100 -10 -39 -36 -31 -75 39 -188 l62 -101 -23 -72 c-35
-109 -66 -162 -131 -226 -61 -60 -171 -124 -265 -155 -55 -18 -198 -47 -203
-41 -2 2 81 235 183 518 199 548 211 573 289 614 65 34 113 39 183 18z m-822
-241 c149 -42 273 -79 278 -83 11 -11 -307 -879 -332 -904 l-21 -21 -242 78
c-134 43 -253 82 -265 87 -21 8 -19 13 71 291 194 594 210 638 226 633 8 -2
137 -39 285 -81z m680 -1169 c27 -57 75 -115 250 -305 119 -129 226 -253 238
-275 22 -40 22 -45 22 -485 0 -403 -2 -448 -17 -477 -41 -74 -97 -90 -183 -49
-88 41 -84 20 -87 381 l-3 320 -27 58 c-16 33 -71 110 -125 174 -54 63 -127
150 -163 192 -36 43 -154 182 -263 310 -109 127 -195 236 -192 241 3 6 21 10
39 10 94 0 287 54 401 113 l50 25 13 -81 c8 -53 24 -107 47 -152z m-447 -305
l153 -180 -28 -127 -27 -128 -320 -425 c-176 -234 -327 -431 -336 -437 -8 -7
-32 -18 -52 -24 -108 -34 -213 79 -179 192 8 25 119 182 294 417 156 208 292
398 302 422 17 39 20 75 23 258 2 116 7 212 10 212 4 0 76 -81 160 -180z"/>
</g>
</svg>
