<?xml version="1.0" standalone="no"?>
<!DOCTYPE svg PUBLIC "-//W3C//DTD SVG 20010904//EN"
 "http://www.w3.org/TR/2001/REC-SVG-20010904/DTD/svg10.dtd">
<svg version="1.0" xmlns="http://www.w3.org/2000/svg"
 width="512.000000pt" height="512.000000pt" viewBox="0 0 512.000000 512.000000"
 preserveAspectRatio="xMidYMid meet">

<g transform="translate(0.000000,512.000000) scale(0.100000,-0.100000)"
fill="#000000" stroke="none">
<path d="M1907 4499 c-115 -27 -212 -119 -253 -240 -11 -30 -14 -128 -14 -419
l-1 -380 -52 -33 c-60 -39 -113 -95 -150 -158 -43 -72 -57 -149 -57 -300 l0
-137 -86 -233 c-71 -195 -83 -237 -75 -256 6 -13 18 -26 26 -29 25 -10 17 -21
-20 -28 -73 -14 -144 -108 -145 -189 0 -29 -7 -46 -29 -68 l-29 -29 -495 0
c-466 0 -495 -1 -510 -18 -10 -10 -17 -27 -16 -38 0 -10 123 -176 273 -369
303 -388 295 -372 175 -362 -66 6 -101 22 -166 79 -58 50 -116 77 -183 85
l-50 6 0 -52 c0 -45 2 -51 21 -51 46 0 101 -25 151 -68 85 -73 147 -97 248
-97 99 0 161 24 245 93 76 64 155 85 235 62 71 -20 71 -23 -2 -97 -38 -39 -68
-77 -68 -88 0 -13 84 -104 229 -249 198 -198 232 -228 252 -223 13 3 133 115
265 249 195 196 244 252 258 289 l18 46 54 -32 c138 -83 291 -69 418 37 73 62
111 78 182 78 75 0 117 -17 181 -71 78 -68 143 -94 238 -94 98 0 156 21 232
82 131 107 242 112 360 16 89 -73 153 -98 248 -97 94 1 154 23 227 85 125 105
257 106 371 3 22 -20 65 -48 96 -63 47 -22 70 -26 141 -26 100 0 164 25 245
95 56 49 100 70 145 70 29 0 30 1 30 50 l0 50 -35 0 c-54 0 -137 -36 -194 -85
-30 -25 -67 -53 -84 -62 -37 -18 -146 -28 -166 -14 -11 7 44 84 255 355 148
190 270 356 272 369 2 13 -3 29 -11 35 -11 9 -298 13 -1145 15 -1130 2 -1131
2 -1159 23 -18 13 -31 35 -36 60 -20 93 -30 117 -64 155 -61 68 -61 68 -308
-181 -121 -121 -223 -220 -227 -220 -4 0 -8 30 -8 68 l0 67 649 649 648 648
29 -16 c16 -8 36 -20 44 -25 12 -9 -63 -88 -385 -411 l-400 -400 38 -37 37
-38 410 410 409 409 40 -3 c52 -3 84 15 157 91 74 76 84 94 84 150 0 36 6 50
29 72 28 26 31 27 84 17 36 -6 76 -7 111 -1 111 18 134 35 388 288 132 130
242 248 245 261 5 20 -25 54 -223 252 -149 149 -236 229 -249 229 -39 0 -535
-513 -535 -553 0 -3 19 -12 42 -22 42 -17 43 -17 57 7 8 12 109 119 225 236
l211 212 177 -177 178 -178 -202 -203 c-128 -128 -220 -212 -248 -226 -45 -23
-140 -44 -140 -30 0 4 41 49 90 100 95 98 110 123 110 180 0 97 -95 165 -197
140 -17 -5 -95 -75 -208 -187 -180 -178 -181 -179 -226 -179 -29 0 -63 -10
-99 -29 -30 -15 -209 -87 -397 -160 l-342 -131 -262 0 -263 0 -55 44 c-31 24
-75 53 -98 65 -24 12 -43 28 -43 36 0 11 32 14 173 17 129 2 178 7 190 17 15
12 17 50 17 361 0 319 -2 353 -20 411 -34 111 -117 194 -229 229 -68 22 -230
26 -304 9z m303 -113 c48 -25 98 -74 121 -118 34 -67 33 -68 -99 -68 l-117 0
-92 -92 -92 -93 -3 -95 -3 -95 -90 -36 -90 -36 -3 216 c-2 119 0 230 3 247 13
73 85 148 174 181 54 20 245 13 291 -11z m150 -547 l0 -262 -47 6 c-27 2 -101
24 -165 47 l-118 42 0 151 0 151 62 63 62 63 103 0 103 0 0 -261z m1798 49
c29 -29 10 -55 -148 -213 l-160 -160 -35 35 -35 36 158 157 c161 159 188 177
220 145z m-2228 -227 c0 -52 9 -65 52 -76 26 -7 27 -8 13 -28 -8 -12 -15 -34
-15 -50 0 -28 0 -28 -47 -20 -27 4 -81 7 -120 6 l-73 -1 0 78 0 77 83 31 c45
17 88 31 95 31 8 1 12 -15 12 -48z m1822 -188 c89 -85 88 -84 22 -153 -31 -33
-65 -62 -75 -65 -11 -4 -55 16 -122 55 -57 33 -114 60 -127 60 -15 0 -53 -30
-119 -94 l-96 -94 -205 -84 -205 -85 -184 -12 c-101 -7 -187 -9 -191 -4 -4 4
-15 33 -24 63 -10 30 -28 74 -42 97 -13 23 -24 44 -24 47 0 3 103 6 229 6
l229 0 298 115 c164 63 304 115 310 115 6 0 19 -9 29 -20 18 -20 19 -20 86 45
61 59 71 65 109 65 37 0 48 -6 102 -57z m-1787 -98 c84 -22 150 -61 226 -133
117 -110 169 -240 169 -429 l0 -103 -285 0 -284 0 35 78 c98 212 106 247 79
338 -31 108 -145 193 -259 194 l-31 0 25 20 c63 49 209 65 325 35z m-250 -174
c76 -34 116 -108 101 -183 -3 -17 -58 -144 -121 -282 -63 -138 -115 -259 -115
-269 0 -10 100 -116 226 -239 124 -123 232 -235 240 -250 19 -37 19 -219 0
-256 -8 -15 -30 -42 -48 -60 l-34 -32 -39 134 -38 134 -282 241 -283 240 79
217 79 216 0 127 c0 69 4 141 10 160 12 44 45 79 95 102 50 23 79 23 130 0z
m1045 -496 l-295 -295 -3 236 c-1 131 -1 238 0 240 2 1 88 8 191 15 186 12
189 13 290 55 56 23 104 43 107 43 3 1 -128 -132 -290 -294z m-400 -145 l0
-50 -330 0 -330 0 15 37 c28 67 9 63 341 63 l304 0 0 -50z m0 -205 l0 -55
-243 0 -243 0 -54 55 -54 55 297 0 297 0 0 -55z m-772 -332 c185 -157 211
-183 221 -218 10 -37 8 -42 -17 -68 l-28 -27 -204 20 c-339 35 -822 108 -1010
154 -51 13 -33 14 213 15 242 1 271 3 305 20 67 35 112 104 112 173 0 67 54
107 147 108 l52 0 209 -177z m593 103 l-64 -65 -39 44 c-22 25 -51 54 -65 65
l-26 20 129 0 128 0 -63 -64z m474 -13 c12 -78 27 -115 62 -154 64 -71 30 -69
1002 -70 564 -1 852 -4 826 -10 -249 -59 -827 -140 -1205 -169 -351 -27 -990
-41 -1115 -24 l-47 7 228 228 c126 126 232 229 236 229 4 0 10 -17 13 -37z
m-2268 -298 c299 -65 757 -142 1023 -170 l65 -8 -55 -24 c-41 -18 -86 -56
-190 -159 l-136 -135 -58 27 c-114 52 -239 41 -346 -31 -29 -19 -54 -35 -56
-35 -1 0 -90 111 -195 248 -106 136 -209 267 -228 291 -36 44 -36 44 -10 38
15 -4 98 -23 186 -42z m4541 28 c-8 -10 -108 -138 -222 -285 -114 -147 -212
-270 -217 -273 -5 -4 -26 8 -47 25 -123 98 -310 94 -437 -11 -134 -111 -243
-114 -373 -10 -86 69 -157 94 -252 89 -88 -5 -144 -28 -215 -86 -128 -107
-242 -108 -370 -2 -85 72 -148 93 -255 88 -96 -5 -146 -25 -218 -88 -116 -103
-245 -105 -358 -5 -42 36 -53 52 -58 86 l-7 43 87 87 86 87 327 -5 c591 -10
1156 29 1761 123 176 27 556 101 680 133 101 25 107 26 88 4z m-3058 -254 l13
-51 -159 -159 c-88 -88 -169 -162 -182 -166 -28 -7 -62 21 -62 50 0 22 357
390 371 382 4 -3 13 -28 19 -56z m-280 -47 c0 -4 -39 -46 -86 -92 -125 -124
-144 -172 -103 -256 15 -31 32 -48 63 -63 82 -40 127 -22 251 99 50 50 94 87
98 84 11 -12 -5 -87 -29 -134 -14 -29 -97 -119 -226 -248 l-203 -202 -178 178
-177 177 212 212 c117 116 227 217 243 224 64 25 135 36 135 21z"/>
</g>
</svg>
