<?xml version="1.0" standalone="no"?>
<!DOCTYPE svg PUBLIC "-//W3C//DTD SVG 20010904//EN"
 "http://www.w3.org/TR/2001/REC-SVG-20010904/DTD/svg10.dtd">
<svg version="1.0" xmlns="http://www.w3.org/2000/svg"
 width="512.000000pt" height="512.000000pt" viewBox="0 0 512.000000 512.000000"
 preserveAspectRatio="xMidYMid meet">

<g transform="translate(0.000000,512.000000) scale(0.100000,-0.100000)"
fill="#000000" stroke="none">
<path d="M1199 4555 c-18 -10 -71 -88 -159 -237 -73 -123 -135 -225 -137 -228
-2 -2 -8 2 -13 10 -42 68 -100 135 -132 151 -47 24 -109 24 -156 0 -82 -42
-236 -295 -302 -496 -20 -60 -22 -75 -12 -112 12 -42 11 -43 -43 -123 -67 -99
-111 -184 -120 -234 -8 -40 14 -115 40 -136 11 -9 6 -22 -29 -76 -63 -93 -126
-223 -133 -270 -11 -85 47 -170 133 -194 38 -11 56 -10 117 4 58 14 81 15 121
6 89 -20 86 -14 86 -161 l0 -131 29 -29 29 -29 160 0 c145 0 162 2 185 20 36
28 47 76 47 202 l0 106 33 10 c71 22 93 23 164 6 90 -21 144 -9 197 43 62 62
71 145 26 232 l-20 39 88 20 c48 11 114 26 147 32 76 15 94 25 106 57 13 36
-5 78 -40 92 -28 12 -151 -7 -307 -48 l-71 -18 -22 33 -23 33 27 56 c22 44 26
63 21 96 -8 52 -51 136 -121 239 -55 80 -55 82 -44 121 14 45 8 73 -48 211
l-35 87 138 231 137 231 224 -338 c123 -186 232 -344 241 -350 9 -7 29 -13 45
-13 24 0 49 19 134 102 64 64 107 98 112 92 6 -5 89 -114 185 -243 l176 -234
-39 -46 c-22 -25 -68 -74 -103 -107 l-63 -62 -139 -9 c-134 -9 -140 -10 -162
-37 -29 -33 -30 -56 -5 -87 l19 -24 384 0 c341 -1 401 -3 543 -23 130 -18 321
-54 483 -89 16 -4 30 -21 46 -58 37 -82 106 -123 189 -111 108 15 149 18 182
12 l36 -7 -7 -59 c-8 -76 19 -139 79 -178 44 -29 70 -31 227 -17 57 5 85 3
112 -8 l36 -15 4 -144 c2 -88 9 -152 16 -165 24 -44 60 -53 212 -53 214 0 219
5 220 207 l0 143 27 17 c29 20 139 23 240 8 68 -10 132 19 171 78 52 78 33
167 -74 348 l-28 46 24 33 c16 23 25 52 28 90 4 50 0 63 -42 143 -25 48 -59
107 -75 131 l-30 43 19 39 c11 21 20 55 20 76 0 43 -40 130 -102 221 -39 57
-40 60 -29 103 10 39 8 53 -15 122 -36 104 -112 250 -182 347 -116 162 -223
166 -334 14 l-52 -72 -21 29 c-77 108 -135 142 -219 129 -31 -6 -52 -19 -89
-57 -51 -52 -118 -150 -161 -235 -14 -29 -30 -53 -34 -53 -4 0 -58 62 -119
138 -61 75 -120 146 -132 156 -30 28 -103 33 -139 10 -35 -23 -312 -317 -330
-350 -25 -48 12 -104 69 -104 22 0 56 30 174 154 l147 155 133 -163 133 -163
-11 -41 c-8 -32 -8 -50 2 -77 12 -34 11 -36 -58 -141 -113 -171 -134 -259 -79
-330 21 -26 21 -27 3 -58 -10 -17 -38 -64 -61 -105 -24 -41 -47 -78 -52 -83
-5 -5 -55 3 -113 16 -214 51 -487 89 -741 104 l-126 7 150 160 c309 330 328
352 328 385 0 40 -31 70 -72 70 -29 0 -48 -16 -173 -146 l-141 -147 -187 251
c-104 138 -200 261 -214 272 -17 13 -41 20 -71 20 -43 0 -48 -4 -137 -90 l-92
-90 -214 321 c-117 177 -224 330 -238 340 -28 23 -94 25 -132 4z m3305 -353
c61 -92 101 -169 132 -254 l13 -38 -47 0 c-46 0 -76 -13 -147 -64 -26 -19 -26
-19 -53 2 -50 40 -87 56 -139 62 l-52 5 33 82 c46 112 164 303 188 303 4 0 36
-44 72 -98z m-446 26 c80 -112 77 -100 44 -181 -47 -112 -53 -144 -40 -195 10
-42 10 -47 -12 -64 -31 -25 -51 -23 -94 11 -47 38 -96 54 -147 49 -26 -2 -39
1 -39 8 0 20 65 168 103 236 44 78 124 188 137 188 5 0 27 -24 48 -52z m-3351
-130 c60 -67 189 -302 208 -379 7 -26 6 -27 -58 -31 -52 -3 -73 -10 -106 -33
-23 -17 -49 -34 -57 -40 -9 -7 -19 -7 -28 0 -8 6 -34 23 -57 40 -33 23 -54 30
-106 33 -64 4 -65 5 -58 31 24 99 201 401 235 401 4 0 16 -10 27 -22z m3601
-367 c46 -38 108 -52 165 -39 23 5 59 22 79 39 42 33 67 36 96 12 20 -17 132
-189 132 -202 0 -3 -42 -6 -92 -6 -87 0 -97 -2 -153 -34 -44 -25 -72 -34 -105
-34 -33 0 -61 9 -105 34 -56 32 -66 34 -153 34 -50 0 -92 3 -92 6 0 13 112
185 132 202 29 24 54 21 96 -12z m-424 -65 c25 -19 51 -36 58 -38 10 -4 10
-10 0 -32 -18 -41 -15 -106 8 -144 l20 -33 -21 -30 c-11 -17 -24 -28 -28 -26
-96 52 -197 70 -274 49 -21 -6 -39 -7 -42 -2 -13 21 123 244 167 274 34 24 63
19 112 -18z m-3324 -160 c86 -59 154 -59 240 0 58 40 100 44 131 12 51 -54
168 -252 156 -264 -3 -3 -31 -1 -63 5 -80 12 -152 -1 -234 -44 -90 -46 -130
-46 -220 0 -82 43 -154 56 -234 44 -32 -6 -60 -8 -63 -5 -12 12 105 210 156
264 31 32 73 28 131 -12z m3727 -153 c65 -32 86 -37 143 -37 57 0 78 5 143 37
83 41 136 47 163 20 44 -44 154 -236 154 -269 0 -14 -6 -15 -37 -8 -21 5 -76
9 -123 9 -80 -1 -90 -3 -166 -43 -65 -34 -91 -42 -134 -42 -43 0 -69 8 -134
42 -76 40 -86 42 -166 43 -47 0 -102 -4 -122 -9 -32 -7 -38 -6 -38 8 0 33 110
225 154 269 27 27 80 21 163 -20z m-477 -103 c22 -11 40 -22 40 -24 0 -2 -7
-21 -16 -42 -22 -52 -15 -131 15 -173 23 -32 23 -33 5 -68 -11 -19 -22 -37
-26 -39 -4 -3 -28 2 -53 11 -54 18 -154 20 -224 3 -59 -13 -77 -4 -68 34 9 34
108 204 156 265 39 50 43 53 86 53 26 0 63 -9 85 -20z m-3291 -178 c69 -34 81
-37 161 -37 80 0 92 3 161 37 41 21 85 39 99 39 73 5 76 4 144 -98 35 -54 79
-128 97 -165 28 -57 31 -69 19 -83 -9 -10 -21 -14 -34 -10 -124 36 -220 25
-344 -41 -71 -37 -93 -44 -142 -44 -49 0 -71 7 -142 44 -124 66 -220 77 -344
41 -13 -4 -25 0 -34 10 -12 14 -9 26 19 83 18 37 62 111 97 164 83 125 103
130 243 60z m3727 -154 c79 -43 80 -43 184 -43 105 0 105 0 187 44 76 40 87
43 140 39 70 -6 88 -24 165 -174 50 -97 52 -104 36 -120 -15 -15 -23 -16 -56
-6 -56 17 -183 15 -238 -4 -25 -8 -69 -30 -98 -47 -42 -26 -63 -32 -124 -36
-71 -3 -76 -2 -165 45 -85 44 -98 48 -180 52 -54 3 -105 0 -133 -8 -40 -11
-47 -11 -62 4 -16 16 -14 24 38 123 30 59 69 122 86 140 28 30 37 33 86 33 45
0 68 -7 134 -42z m-3486 -448 l0 -50 -75 0 -75 0 0 50 0 50 75 0 75 0 0 -50z
m3740 -120 l0 -71 -72 3 -73 3 -3 68 -3 67 76 0 75 0 0 -70z"/>
<path d="M2025 2675 c-115 -18 -196 -40 -308 -85 -190 -76 -301 -154 -502
-350 -155 -152 -222 -202 -412 -310 -124 -70 -201 -133 -267 -218 -52 -69
-106 -172 -106 -206 0 -37 30 -67 69 -68 40 -1 58 17 111 114 54 97 147 182
281 257 187 104 246 148 414 311 88 85 195 179 238 208 140 97 313 166 487
196 134 23 924 24 1056 1 186 -32 358 -102 504 -206 41 -29 127 -104 191 -166
127 -124 154 -136 197 -90 45 48 33 71 -105 208 -235 232 -479 359 -778 404
-131 20 -946 20 -1070 0z"/>
<path d="M2352 2229 c-18 -5 -61 -25 -95 -44 -36 -19 -85 -37 -115 -41 -39 -5
-58 -13 -72 -32 -26 -33 -25 -55 4 -89 21 -24 30 -27 77 -25 67 3 108 15 185
58 51 28 71 34 123 34 52 0 74 -6 143 -41 141 -71 254 -71 390 1 66 34 87 40
138 40 52 0 73 -6 139 -41 118 -61 234 -70 261 -19 30 55 -6 104 -85 116 -27
4 -85 25 -129 48 -78 41 -80 41 -185 41 l-107 0 -85 -44 c-117 -62 -166 -62
-286 0 -81 42 -90 44 -177 46 -50 1 -106 -2 -124 -8z"/>
<path d="M4167 1969 c-10 -6 -23 -22 -28 -37 -18 -47 3 -73 109 -133 153 -86
262 -208 311 -350 11 -30 42 -162 70 -294 43 -199 59 -254 93 -324 49 -101
141 -199 234 -249 77 -40 115 -41 143 -6 41 52 24 92 -56 131 -72 35 -153 115
-187 185 -15 30 -42 126 -61 214 -75 339 -87 383 -126 464 -80 167 -181 269
-371 373 -68 38 -100 44 -131 26z"/>
<path d="M1672 1829 c-18 -5 -61 -25 -95 -44 -36 -19 -85 -37 -115 -41 -39 -5
-58 -13 -72 -32 -26 -33 -25 -55 4 -89 21 -24 30 -27 77 -25 67 3 108 15 185
58 51 28 71 34 123 34 52 0 74 -6 143 -41 141 -71 254 -71 390 1 66 34 87 40
138 40 52 0 73 -6 139 -41 118 -61 234 -70 261 -19 30 57 -4 105 -82 115 -31
5 -85 25 -132 49 -78 41 -80 41 -185 41 l-107 0 -85 -44 c-117 -62 -166 -62
-286 0 -81 42 -90 44 -177 46 -50 1 -106 -2 -124 -8z"/>
<path d="M3163 1450 c-22 -5 -76 -27 -118 -49 -51 -27 -90 -41 -115 -41 -81 0
-120 -78 -65 -130 22 -20 31 -22 87 -18 49 4 85 16 158 52 87 44 100 47 150
43 39 -4 79 -18 138 -48 83 -44 85 -44 185 -44 102 1 102 1 197 48 119 61 154
60 280 -1 86 -43 165 -60 215 -48 29 7 56 56 47 88 -7 29 -51 58 -89 58 -20 0
-73 19 -130 48 -95 46 -100 47 -189 47 -89 -1 -94 -2 -185 -48 -127 -64 -165
-64 -292 -2 -77 38 -105 47 -162 50 -39 2 -89 0 -112 -5z"/>
<path d="M383 1238 c-28 -13 -36 -37 -68 -178 -14 -63 -37 -139 -51 -168 -34
-70 -115 -150 -187 -185 -80 -39 -97 -79 -56 -131 28 -35 66 -34 143 7 84 44
182 145 229 234 36 70 97 290 97 354 0 53 -60 91 -107 67z"/>
<path d="M970 1126 c-20 -7 -61 -27 -90 -44 -30 -17 -79 -33 -108 -37 -59 -8
-92 -34 -92 -73 0 -91 116 -101 269 -23 68 35 90 41 141 41 52 0 73 -6 139
-41 135 -70 248 -71 387 -1 43 21 102 42 129 46 57 7 85 32 85 77 0 16 -9 38
-21 50 -18 18 -30 21 -89 17 -57 -3 -83 -11 -154 -47 -119 -61 -168 -61 -285
0 -80 42 -87 44 -180 46 -62 2 -109 -2 -131 -11z"/>
<path d="M2433 1021 c-17 -4 -68 -27 -114 -50 -46 -23 -97 -41 -115 -41 -48 0
-65 -9 -79 -43 -16 -38 -3 -79 30 -97 42 -22 129 -5 230 45 123 61 158 61 284
-2 94 -47 96 -48 190 -48 94 0 98 1 190 48 127 63 161 63 285 2 115 -57 196
-69 239 -35 19 15 27 30 27 54 0 43 -28 67 -89 77 -27 4 -89 27 -137 51 -85
42 -91 43 -184 43 -94 0 -97 -1 -190 -48 -125 -62 -151 -62 -284 0 -87 41
-109 47 -175 49 -42 2 -90 -1 -108 -5z"/>
</g>
</svg>
