<?xml version="1.0" standalone="no"?>
<!DOCTYPE svg PUBLIC "-//W3C//DTD SVG 20010904//EN"
 "http://www.w3.org/TR/2001/REC-SVG-20010904/DTD/svg10.dtd">
<svg version="1.0" xmlns="http://www.w3.org/2000/svg"
 width="512.000000pt" height="512.000000pt" viewBox="0 0 512.000000 512.000000"
 preserveAspectRatio="xMidYMid meet">

<g transform="translate(0.000000,512.000000) scale(0.100000,-0.100000)"
fill="#000000" stroke="none">
<path d="M1712 4593 c-14 -13 -1092 -1717 -1196 -1891 -19 -31 26 -79 63 -67
11 3 137 194 297 450 154 245 282 445 286 445 4 0 62 -79 130 -176 67 -96 130
-180 141 -185 31 -17 59 11 178 183 62 90 115 166 119 171 3 4 60 -70 125
-164 128 -183 151 -207 183 -190 11 6 75 89 142 186 66 96 124 175 128 175 7
0 192 -292 192 -303 0 -3 -74 -123 -165 -268 -91 -144 -165 -270 -165 -279 0
-27 36 -53 62 -46 17 4 94 119 303 451 154 245 282 445 285 445 3 -1 61 -81
129 -180 68 -98 131 -180 140 -182 9 -2 23 -2 33 0 9 1 71 82 138 178 67 95
125 174 129 174 4 0 62 -78 129 -174 117 -167 142 -193 173 -181 8 3 72 89
143 191 71 101 133 181 136 177 4 -4 128 -204 275 -443 147 -239 274 -441 283
-447 9 -7 22 -13 29 -13 21 0 55 40 50 58 -5 23 -1145 1871 -1170 1900 -11 12
-28 22 -37 22 -9 0 -26 -10 -37 -22 -11 -13 -194 -301 -408 -641 -312 -498
-390 -616 -400 -605 -7 7 -182 289 -390 626 -208 337 -384 620 -392 628 -19
19 -36 18 -61 -3z m284 -544 c136 -221 247 -407 247 -413 0 -16 -216 -326
-225 -323 -4 1 -57 74 -118 162 -137 196 -138 197 -169 193 -21 -2 -50 -37
-148 -178 -68 -96 -126 -176 -130 -177 -7 -2 -226 306 -227 320 -1 9 509 817
515 817 4 0 118 -181 255 -401z m1654 5 c135 -218 246 -402 248 -410 3 -13
-215 -334 -227 -334 -3 1 -60 79 -126 175 -119 173 -144 198 -179 178 -8 -4
-65 -80 -126 -168 -62 -88 -118 -166 -125 -173 -10 -11 -32 13 -121 140 -59
84 -108 160 -108 168 0 16 503 820 513 820 4 0 117 -178 251 -396z"/>
<path d="M1118 2558 c-8 -7 -27 -34 -42 -60 -14 -26 -41 -58 -59 -72 -46 -35
-135 -74 -185 -82 -30 -4 -48 -14 -59 -30 -14 -22 -14 -26 2 -50 15 -24 22
-26 64 -21 63 7 151 42 211 82 l50 34 0 -165 c0 -188 -5 -207 -81 -282 -71
-71 -172 -114 -304 -130 -50 -6 -62 -11 -74 -34 -14 -24 -14 -28 3 -47 48 -53
282 6 409 102 l47 37 0 -175 c0 -167 -1 -178 -25 -225 -73 -145 -235 -235
-443 -247 -83 -5 -95 -9 -109 -29 -19 -30 -9 -62 24 -70 47 -12 196 4 278 30
86 27 182 80 230 127 17 16 34 29 38 29 4 0 6 -150 5 -333 l-3 -332 -280 -3
c-249 -2 -281 -4 -292 -19 -18 -24 -16 -40 7 -63 20 -20 33 -20 2030 -20 1997
0 2010 0 2030 20 23 23 25 39 8 63 -12 15 -44 17 -293 19 l-280 3 -3 333 c-1
182 1 332 5 332 4 0 21 -13 38 -29 48 -47 144 -100 230 -127 82 -26 231 -42
278 -30 33 8 43 40 23 71 -15 22 -24 25 -79 25 -201 1 -398 104 -471 248 -25
49 -26 58 -26 227 l0 175 48 -37 c89 -68 245 -123 352 -123 31 0 43 5 56 25
15 22 15 27 1 48 -12 18 -29 24 -102 34 -150 21 -283 102 -336 205 -16 32 -19
60 -19 202 l0 165 50 -34 c60 -40 148 -75 211 -82 42 -5 49 -3 64 21 26 39 2
71 -59 80 -54 8 -173 66 -203 98 -12 13 -34 46 -50 73 -26 44 -33 50 -63 50
-29 0 -36 -5 -57 -45 -13 -25 -36 -57 -51 -73 -34 -36 -148 -93 -204 -102 -24
-4 -49 -12 -55 -17 -18 -14 -16 -63 2 -78 32 -27 174 14 265 75 l50 34 0 -165
c0 -146 -2 -169 -20 -205 -53 -103 -182 -181 -335 -202 -73 -10 -90 -16 -102
-34 -14 -21 -14 -26 1 -48 13 -20 25 -25 59 -25 111 1 270 57 354 126 l43 35
0 -184 0 -184 -38 -59 c-45 -70 -106 -125 -177 -159 -71 -35 -197 -65 -272
-65 -50 0 -67 -4 -83 -20 -24 -24 -25 -29 -3 -59 16 -23 19 -24 117 -18 156 8
321 70 408 152 20 19 39 35 42 35 3 0 6 -151 6 -335 l0 -335 -652 2 -653 3 -3
332 c-1 183 0 333 4 333 3 0 27 -18 52 -41 96 -84 241 -138 397 -146 87 -5
103 -3 118 11 22 22 22 41 -1 64 -14 14 -40 20 -109 25 -204 13 -374 110 -443
252 -18 37 -20 62 -20 219 l0 177 43 -35 c84 -69 243 -125 354 -126 34 0 46 5
59 25 15 22 15 27 1 48 -12 18 -29 24 -102 34 -151 21 -283 101 -336 205 -16
32 -19 59 -19 202 l0 165 50 -34 c60 -40 148 -75 211 -82 42 -5 49 -3 64 21
26 39 2 71 -59 80 -56 9 -173 66 -206 101 -13 14 -36 47 -50 73 -22 42 -29 47
-59 47 -31 0 -38 -5 -64 -50 -16 -27 -38 -60 -50 -73 -30 -32 -149 -90 -203
-98 -61 -9 -85 -41 -59 -80 15 -24 22 -26 64 -21 63 7 151 42 211 82 l50 34 0
-165 c0 -143 -3 -170 -19 -202 -53 -104 -185 -184 -336 -205 -73 -10 -90 -16
-102 -34 -14 -21 -14 -26 1 -48 13 -20 25 -25 59 -25 111 1 270 57 354 126
l43 35 0 -177 c0 -159 -2 -182 -20 -220 -70 -144 -238 -238 -448 -251 -83 -5
-95 -9 -109 -29 -19 -30 -9 -62 24 -70 14 -4 64 -4 112 -1 144 10 292 66 383
146 25 23 49 41 52 41 4 0 5 -150 4 -332 l-3 -333 -652 -3 -653 -2 0 341 0
341 42 -41 c91 -87 253 -149 414 -158 101 -6 102 -6 119 20 13 20 14 30 5 46
-12 24 -27 28 -133 35 -126 9 -262 63 -341 135 -16 14 -46 53 -67 85 l-39 59
0 184 0 184 43 -35 c84 -69 243 -125 354 -126 34 0 46 5 59 25 15 22 15 27 1
48 -12 18 -29 24 -102 34 -153 21 -282 99 -335 202 -18 36 -20 59 -20 205 l0
165 50 -34 c96 -65 242 -104 269 -72 7 9 11 28 9 44 -3 24 -10 30 -48 41 -141
42 -210 83 -257 157 -45 68 -51 75 -71 75 -10 0 -25 -6 -34 -12z"/>
</g>
</svg>
