<?xml version="1.0" standalone="no"?>
<!DOCTYPE svg PUBLIC "-//W3C//DTD SVG 20010904//EN"
 "http://www.w3.org/TR/2001/REC-SVG-20010904/DTD/svg10.dtd">
<svg version="1.0" xmlns="http://www.w3.org/2000/svg"
 width="512.000000pt" height="512.000000pt" viewBox="0 0 512.000000 512.000000"
 preserveAspectRatio="xMidYMid meet">

<g transform="translate(0.000000,512.000000) scale(0.100000,-0.100000)"
fill="#000000" stroke="none">
<path d="M404 4951 c-47 -12 -133 -62 -160 -94 -14 -17 -37 -53 -52 -81 l-27
-51 0 -1125 0 -1125 34 -63 c38 -70 69 -100 145 -140 l51 -27 483 -3 482 -3 0
80 0 80 -468 3 -469 3 -37 29 c-70 53 -67 -20 -64 1180 3 1078 3 1085 24 1112
11 15 33 37 48 48 27 21 34 21 1112 24 1200 3 1127 6 1180 -64 l29 -37 3 -709
2 -708 81 0 80 0 -3 723 -3 722 -34 63 c-38 70 -69 100 -145 140 l-51 27
-1105 2 c-608 0 -1119 -2 -1136 -6z"/>
<path d="M665 4616 l-25 -25 0 -991 0 -991 25 -24 24 -25 271 0 271 0 24 25
25 24 0 295 0 294 268 4 c254 4 271 6 344 30 119 40 204 92 294 182 90 90 143
175 182 294 22 67 26 94 26 212 0 118 -4 145 -26 212 -39 119 -92 204 -182
294 -90 90 -174 142 -294 183 l-77 26 -562 3 -563 3 -25 -25z m1121 -147 c98
-17 213 -79 288 -155 219 -218 219 -567 1 -787 -76 -77 -190 -138 -289 -156
-33 -6 -184 -11 -338 -11 l-279 0 -24 -25 -25 -24 0 -296 0 -295 -160 0 -160
0 0 880 0 880 463 0 c285 0 486 -4 523 -11z"/>
<path d="M1145 4135 c-25 -24 -25 -26 -25 -215 0 -189 0 -191 25 -215 l24 -25
272 0 c184 0 285 4 313 12 86 26 166 136 166 228 0 92 -80 202 -166 228 -28 8
-129 12 -313 12 l-272 0 -24 -25z m590 -160 c16 -15 25 -36 25 -55 0 -19 -9
-40 -25 -55 -24 -25 -24 -25 -240 -25 l-215 0 0 80 0 80 215 0 c216 0 216 0
240 -25z"/>
<path d="M2005 3106 c-22 -7 -54 -20 -71 -29 -33 -17 -104 -90 -124 -128 -7
-13 -88 -248 -180 -523 l-166 -500 -65 -16 c-35 -9 -79 -24 -98 -34 -53 -28
-120 -102 -149 -164 l-27 -57 0 -390 0 -390 27 -51 c40 -76 70 -107 140 -145
l63 -34 323 -3 322 -3 0 -160 0 -159 -240 0 -240 0 0 80 0 80 -80 0 -80 0 0
-95 c0 -113 13 -151 66 -191 l37 -29 298 0 c285 0 299 1 325 21 66 49 69 58
72 265 l3 189 880 0 879 0 0 -175 c0 -200 6 -226 66 -271 l37 -29 298 0 c285
0 299 1 325 21 67 49 69 57 72 267 l3 192 65 34 c71 37 102 68 142 145 l27 51
0 390 0 390 -27 57 c-29 62 -96 136 -149 164 -19 10 -63 25 -98 34 l-65 16
-167 502 c-92 276 -176 517 -188 535 -31 51 -92 104 -146 129 l-50 23 -1010 2
c-795 1 -1019 -1 -1050 -11z m2055 -168 c45 -23 73 -59 85 -110 l7 -28 -1112
0 -1112 0 7 28 c11 48 40 86 81 109 l39 23 980 0 981 0 44 -22z m268 -658
l120 -360 -1408 0 -1408 0 120 360 120 360 1168 0 1168 0 120 -360z m357 -539
c49 -22 91 -69 105 -119 8 -24 10 -153 8 -379 -3 -327 -4 -343 -24 -369 -11
-15 -33 -37 -48 -48 l-27 -21 -1658 0 -1658 0 -37 29 c-65 49 -66 56 -66 431
0 280 3 342 15 373 21 49 52 81 100 103 38 18 106 19 1645 19 1536 0 1607 -1
1645 -19z m-125 -1261 l0 -160 -240 0 -240 0 0 160 0 160 240 0 240 0 0 -160z"/>
<path d="M1660 1584 c-142 -52 -229 -183 -218 -327 26 -318 443 -407 597 -127
33 60 36 71 36 150 -1 72 -5 93 -27 136 -39 75 -70 107 -138 143 -76 41 -179
51 -250 25z m163 -158 c103 -43 128 -177 48 -257 -65 -65 -157 -65 -222 0
-124 123 13 325 174 257z"/>
<path d="M4220 1584 c-142 -52 -229 -183 -218 -327 26 -318 443 -407 597 -127
33 60 36 71 36 150 -1 72 -5 93 -27 136 -39 75 -70 107 -138 143 -76 41 -179
51 -250 25z m163 -158 c103 -43 128 -177 48 -257 -65 -65 -157 -65 -222 0
-124 123 13 325 174 257z"/>
<path d="M2240 1440 l0 -80 800 0 800 0 0 80 0 80 -800 0 -800 0 0 -80z"/>
<path d="M2240 1120 l0 -80 800 0 800 0 0 80 0 80 -800 0 -800 0 0 -80z"/>
</g>
</svg>
