<?xml version="1.0" standalone="no"?>
<!DOCTYPE svg PUBLIC "-//W3C//DTD SVG 20010904//EN"
 "http://www.w3.org/TR/2001/REC-SVG-20010904/DTD/svg10.dtd">
<svg version="1.0" xmlns="http://www.w3.org/2000/svg"
 width="512.000000pt" height="512.000000pt" viewBox="0 0 512.000000 512.000000"
 preserveAspectRatio="xMidYMid meet">

<g transform="translate(0.000000,512.000000) scale(0.100000,-0.100000)"
fill="#000000" stroke="none">
<path d="M1265 4929 c-192 -25 -409 -109 -562 -218 -284 -201 -469 -515 -512
-866 -8 -62 -11 -635 -11 -1853 l0 -1763 25 -24 c30 -30 54 -31 89 -4 l26 20
0 1762 c0 1096 4 1795 10 1848 58 505 461 905 970 960 59 6 326 9 715 6 686
-4 678 -3 858 -73 267 -103 475 -297 597 -557 42 -90 84 -235 96 -329 l6 -58
-154 0 -155 0 -6 50 c-8 69 -58 208 -98 278 -19 31 -77 100 -129 152 -105 105
-191 158 -330 202 l-75 23 -675 0 c-758 0 -726 3 -885 -76 -152 -75 -279 -202
-354 -354 -83 -166 -75 22 -78 -2017 l-3 -1816 26 -21 c35 -27 59 -26 89 4 24
23 25 31 25 135 l0 110 163 -2 162 -3 2 -100 c4 -128 7 -140 41 -154 42 -17
79 2 93 48 6 23 9 179 7 442 -3 384 -4 408 -22 428 -24 26 -77 28 -99 3 -14
-15 -17 -40 -17 -130 l0 -112 -165 0 -165 0 2 1488 3 1487 22 58 c66 173 177
303 320 374 148 74 146 74 863 71 l635 -3 73 -27 c103 -37 175 -83 252 -159
74 -74 138 -185 164 -285 22 -85 21 -94 -9 -94 -14 0 -37 -11 -50 -25 -24 -23
-25 -28 -25 -178 l0 -154 -95 -37 c-414 -164 -725 -537 -815 -975 -11 -55 -20
-116 -20 -138 0 -49 -5 -55 -62 -77 -57 -21 -102 -72 -117 -132 -6 -23 -11
-117 -11 -207 0 -151 2 -166 21 -191 l20 -26 1479 0 1479 0 20 26 c19 25 21
40 21 198 0 94 -5 188 -11 209 -15 54 -63 104 -120 124 -47 17 -49 19 -54 63
-43 344 -165 602 -394 830 -145 143 -304 247 -478 310 l-63 23 0 154 c0 150
-1 155 -25 178 -14 15 -36 25 -53 25 -28 0 -28 0 -40 89 -7 49 -23 129 -37
178 -32 111 -128 307 -195 395 -151 199 -362 352 -591 429 -188 63 -173 62
-889 65 -360 1 -686 -2 -725 -7z m2415 -1389 l0 -100 -260 0 -260 0 0 100 0
100 260 0 260 0 0 -100z m122 -261 c228 -78 432 -227 579 -422 77 -102 162
-276 193 -397 25 -95 47 -236 38 -245 -3 -3 -540 -5 -1194 -5 l-1188 0 0 44
c0 53 23 166 51 256 111 350 397 643 748 765 64 23 78 24 388 24 305 1 326 0
385 -20z m982 -1231 c12 -17 16 -50 16 -145 l0 -123 -1380 0 -1380 0 0 123 c0
95 4 128 16 145 l15 22 1349 0 1349 0 15 -22z m-3686 -1390 l3 -68 -166 0
-165 0 0 70 0 70 163 -2 162 -3 3 -67z"/>
<path d="M2392 1412 c-18 -18 -62 -158 -62 -196 0 -23 44 -66 68 -66 39 0 62
33 87 120 30 105 30 106 0 135 -29 30 -68 32 -93 7z"/>
<path d="M2887 1418 c-24 -19 -35 -55 -42 -145 -7 -74 -6 -82 14 -102 27 -27
72 -27 96 -1 22 25 47 183 34 217 -15 39 -69 55 -102 31z"/>
<path d="M3371 1404 c-18 -23 -21 -41 -21 -118 0 -105 16 -136 70 -136 56 0
70 27 70 138 0 90 -2 100 -23 120 -32 30 -71 28 -96 -4z"/>
<path d="M3871 1413 c-23 -16 -24 -19 -17 -112 7 -111 24 -144 74 -149 43 -4
72 27 72 76 -1 84 -19 167 -41 185 -27 21 -58 22 -88 0z"/>
<path d="M4367 1419 c-35 -20 -37 -52 -12 -145 26 -93 36 -109 75 -119 35 -8
80 27 80 63 0 48 -49 191 -70 202 -24 13 -50 12 -73 -1z"/>
<path d="M2285 960 c-12 -4 -25 -14 -31 -21 -13 -17 -54 -160 -54 -188 0 -52
81 -81 117 -42 28 30 68 187 55 215 -12 28 -59 46 -87 36z"/>
<path d="M4509 958 c-46 -15 -52 -49 -28 -141 25 -93 49 -127 91 -127 33 0 68
31 68 60 0 34 -41 174 -57 192 -19 21 -42 27 -74 16z"/>
<path d="M2821 933 c-17 -14 -24 -37 -33 -104 -6 -47 -8 -97 -4 -112 13 -52
90 -61 121 -14 8 13 17 61 21 118 7 93 6 96 -17 112 -30 22 -61 21 -88 0z"/>
<path d="M3375 925 c-23 -22 -25 -32 -25 -117 0 -115 12 -138 70 -138 58 0 70
23 70 138 0 85 -2 95 -25 117 -13 14 -33 25 -45 25 -11 0 -32 -11 -45 -25z"/>
<path d="M3931 933 c-23 -15 -24 -20 -18 -103 4 -48 11 -100 17 -114 20 -53
100 -60 122 -10 17 36 -3 197 -27 224 -22 24 -62 26 -94 3z"/>
<path d="M2133 478 c-12 -13 -31 -62 -44 -110 -21 -82 -22 -87 -6 -112 22 -34
60 -43 92 -22 23 15 54 93 70 178 13 71 -65 116 -112 66z"/>
<path d="M4613 474 c-28 -28 -28 -37 8 -156 23 -80 53 -108 97 -92 14 5 33 21
41 35 13 24 12 35 -9 115 -13 48 -32 96 -42 106 -25 25 -65 22 -95 -8z"/>
<path d="M2755 450 c-19 -22 -42 -171 -32 -212 9 -34 50 -54 85 -42 37 13 51
47 58 148 6 75 5 89 -11 106 -24 26 -76 26 -100 0z"/>
<path d="M3985 450 c-15 -17 -17 -31 -11 -106 4 -47 11 -97 16 -110 20 -51
100 -57 122 -10 17 38 1 190 -24 221 -25 31 -77 34 -103 5z"/>
<path d="M3366 438 c-12 -16 -16 -47 -16 -116 0 -85 2 -95 25 -117 13 -14 33
-25 45 -25 12 0 32 11 45 25 23 22 25 32 25 117 0 115 -12 138 -70 138 -29 0
-43 -6 -54 -22z"/>
</g>
</svg>
