<?xml version="1.0" standalone="no"?>
<!DOCTYPE svg PUBLIC "-//W3C//DTD SVG 20010904//EN"
 "http://www.w3.org/TR/2001/REC-SVG-20010904/DTD/svg10.dtd">
<svg version="1.0" xmlns="http://www.w3.org/2000/svg"
 width="512.000000pt" height="512.000000pt" viewBox="0 0 512.000000 512.000000"
 preserveAspectRatio="xMidYMid meet">

<g transform="translate(0.000000,512.000000) scale(0.100000,-0.100000)"
fill="#000000" stroke="none">
<path d="M2517 5109 c-37 -22 -47 -70 -47 -236 l0 -158 -137 -184 c-110 -148
-138 -180 -144 -165 -4 10 -17 47 -30 82 -60 171 -201 309 -387 380 -60 23
-82 26 -202 27 -116 0 -145 -3 -209 -24 -142 -47 -292 -171 -358 -297 -15 -30
-31 -54 -35 -54 -4 0 -27 15 -51 33 -267 204 -660 58 -733 -272 -10 -46 -15
-95 -11 -132 3 -33 2 -59 -3 -59 -23 0 -103 -88 -130 -144 -89 -180 -17 -378
170 -465 l55 -26 615 -5 616 -5 -661 -888 -660 -888 -5 61 c-6 70 -30 100 -80
100 -82 0 -90 -25 -90 -260 l0 -192 29 -29 c31 -31 56 -36 93 -18 13 5 105
121 206 257 l182 246 0 -140 c0 -98 5 -156 16 -193 18 -61 69 -123 128 -154
41 -22 45 -22 698 -25 l657 -3 -29 -47 c-47 -75 -72 -158 -77 -257 -9 -153 41
-294 143 -405 l55 -59 -148 -3 c-163 -3 -192 -12 -252 -70 -55 -54 -75 -104
-75 -183 0 -80 20 -129 76 -181 78 -74 17 -69 858 -69 841 0 780 -5 858 69 56
52 76 101 76 181 0 81 -21 132 -80 189 -54 52 -107 66 -252 66 l-124 0 54 58
c63 68 111 161 134 258 20 84 14 298 -10 384 -9 30 -16 58 -16 62 0 4 276 9
613 10 607 3 612 3 653 25 59 31 110 93 128 154 11 37 16 95 16 193 l0 140
183 -246 c211 -286 233 -304 298 -239 l29 29 0 192 c0 235 -8 260 -90 260 -50
0 -74 -30 -80 -100 l-5 -61 -1145 1540 -1145 1540 -5 173 c-5 178 -12 207 -50
228 -24 13 -60 12 -83 -1z m-816 -439 c208 -64 340 -257 326 -476 l-5 -80
-198 -267 -198 -268 -666 3 c-650 3 -666 3 -700 24 -42 24 -77 74 -86 121 -14
74 36 162 104 184 80 25 98 62 75 155 -40 162 48 312 212 359 141 42 281 -31
350 -181 35 -75 46 -84 99 -84 47 0 73 33 81 100 24 203 149 355 340 416 63
20 193 17 266 -6z m1803 -1390 l937 -1259 -3 -262 -3 -261 -28 -24 c-27 -23
-35 -24 -167 -24 l-138 0 -4 298 c-5 325 -10 360 -73 469 -17 30 -203 224
-491 513 l-463 465 -210 372 -211 372 0 113 c0 146 -10 184 -56 205 -31 16
-37 16 -68 0 -46 -21 -56 -59 -56 -205 l0 -113 -211 -372 -210 -372 -463 -465
c-288 -289 -474 -483 -491 -513 -63 -109 -68 -144 -73 -469 l-4 -298 -138 0
c-132 0 -140 1 -167 24 l-28 24 -3 261 -3 262 937 1259 c515 693 940 1260 944
1260 4 0 429 -567 944 -1260z m-289 -683 c355 -627 645 -1141 645 -1143 0 -2
-166 -4 -369 -4 l-369 0 -54 73 c-30 39 -96 118 -145 175 -123 138 -151 224
-100 301 39 60 47 76 47 93 0 53 -123 113 -254 124 -170 15 -329 -73 -405
-223 -29 -59 -51 -148 -51 -210 0 -31 -2 -33 -35 -33 -78 0 -201 -64 -230
-120 -33 -64 -8 -137 59 -166 27 -11 -19 -13 -332 -14 -208 0 -362 4 -360 9
14 39 1293 2281 1300 2279 4 -2 298 -515 653 -1141z m-1498 16 c-101 -184
-504 -892 -514 -903 -11 -12 -13 5 -13 105 0 149 12 232 41 293 16 33 90 115
253 280 126 127 232 232 234 232 2 0 1 -3 -1 -7z m2172 -505 c29 -61 41 -144
41 -293 0 -100 -2 -117 -13 -105 -11 12 -497 866 -515 905 -2 6 101 -96 230
-225 168 -168 241 -248 257 -282z m-1262 -64 c18 -5 20 -10 12 -31 -14 -37
-11 -133 7 -194 24 -82 64 -144 161 -250 103 -112 184 -225 212 -297 50 -126
65 -337 32 -445 -11 -35 -31 -43 -31 -12 0 33 -43 124 -74 158 -39 42 -78 49
-117 18 l-24 -18 0 86 c0 75 -4 94 -32 153 -36 76 -98 148 -162 190 -55 34
-81 35 -118 4 -26 -23 -28 -30 -33 -127 -3 -57 -10 -113 -17 -124 -16 -28 -57
-64 -134 -118 -108 -75 -169 -172 -169 -269 0 -39 -1 -41 -15 -22 -24 32 -55
142 -55 199 0 82 34 177 85 238 78 92 100 135 99 197 -1 66 -28 124 -79 169
l-37 32 81 -3 c72 -3 83 -1 103 20 21 21 23 31 23 155 0 144 11 182 69 236 46
43 154 71 213 55z m8 -1009 c-3 -22 -22 -68 -40 -103 -19 -34 -35 -76 -35 -91
0 -34 41 -73 96 -91 36 -12 137 -9 182 5 19 6 22 4 22 -20 0 -52 -25 -109 -65
-151 -44 -46 -79 -59 -186 -70 -57 -6 -71 -3 -115 19 -112 57 -184 139 -184
211 0 62 29 105 110 163 98 69 147 118 177 178 l26 50 9 -30 c5 -16 6 -48 3
-70z m667 -725 c25 -26 29 -36 24 -63 -3 -18 -17 -42 -32 -54 l-25 -23 -710 0
-711 0 -29 29 c-17 18 -29 40 -29 56 0 16 12 38 29 56 l29 29 712 0 712 0 30
-30z"/>
<path d="M4000 5109 c-91 -16 -209 -59 -225 -82 -17 -25 -20 -70 -5 -98 6 -10
34 -31 63 -45 172 -86 285 -214 353 -396 21 -58 28 -96 32 -185 6 -138 -13
-230 -70 -346 -52 -105 -179 -235 -278 -286 -91 -47 -110 -67 -110 -112 0 -52
26 -74 122 -104 317 -100 648 -12 880 234 161 170 238 385 225 626 -8 134 -25
203 -82 322 -140 290 -414 468 -735 478 -63 2 -140 0 -170 -6z m314 -184 c375
-100 594 -504 471 -870 -68 -206 -236 -373 -440 -439 -66 -21 -198 -37 -244
-30 l-37 6 64 61 c173 166 262 374 262 612 0 236 -79 430 -242 597 -43 44 -78
82 -78 85 0 11 185 -6 244 -22z"/>
<path d="M815 1098 c-41 -23 -44 -38 -45 -187 l0 -145 -55 75 c-77 102 -116
120 -168 79 -31 -25 -43 -70 -26 -102 26 -48 278 -375 294 -382 26 -10 69 -7
86 7 8 7 77 94 152 194 138 183 150 208 131 258 -10 25 -62 47 -95 40 -22 -5
-45 -27 -87 -83 l-57 -76 -5 143 c-5 141 -5 143 -33 167 -30 26 -61 30 -92 12z"/>
<path d="M4213 1086 c-28 -24 -28 -26 -33 -167 l-5 -143 -57 76 c-42 56 -65
78 -87 83 -33 7 -85 -15 -95 -40 -19 -50 -7 -75 131 -258 75 -100 144 -187
152 -194 17 -14 60 -17 86 -7 16 7 268 334 294 382 17 32 5 77 -26 102 -52 40
-90 23 -165 -77 l-58 -76 0 144 c-1 150 -4 165 -47 187 -33 18 -59 14 -90 -12z"/>
</g>
</svg>
