<?xml version="1.0" standalone="no"?>
<!DOCTYPE svg PUBLIC "-//W3C//DTD SVG 20010904//EN"
 "http://www.w3.org/TR/2001/REC-SVG-20010904/DTD/svg10.dtd">
<svg version="1.0" xmlns="http://www.w3.org/2000/svg"
 width="512.000000pt" height="512.000000pt" viewBox="0 0 512.000000 512.000000"
 preserveAspectRatio="xMidYMid meet">

<g transform="translate(0.000000,512.000000) scale(0.100000,-0.100000)"
fill="#000000" stroke="none">
<path d="M3392 4177 c-13 -13 -30 -59 -44 -115 -12 -50 -25 -92 -28 -92 -3 0
-23 32 -45 71 -60 107 -97 129 -149 88 -40 -32 -34 -68 30 -182 31 -54 54
-100 52 -103 -5 -4 -1710 37 -1717 42 -1 2 11 45 28 96 38 113 38 132 5 165
-20 20 -31 24 -57 19 -43 -8 -61 -33 -82 -111 -10 -36 -21 -65 -25 -65 -4 0
-15 12 -25 26 -31 47 -54 64 -89 64 -37 0 -76 -36 -76 -70 0 -9 30 -61 66
-114 l65 -97 -16 -52 c-88 -270 -346 -825 -520 -1117 -89 -148 -256 -403 -297
-453 l-23 -28 -113 46 c-116 47 -138 49 -174 17 -26 -22 -22 -58 22 -215 53
-186 56 -193 93 -210 41 -20 2124 -852 2156 -862 28 -9 2411 669 2442 694 20
17 109 335 109 389 0 58 -25 68 -249 96 -113 14 -208 29 -211 33 -39 44 -229
291 -328 427 -237 325 -558 827 -716 1119 l-48 88 45 176 c47 185 48 210 9
239 -26 20 -66 16 -90 -9z m-967 -468 c457 -11 831 -22 832 -23 1 -1 -22 -112
-52 -246 -146 -654 -368 -1348 -640 -2000 -42 -102 -85 -201 -95 -220 l-18
-35 -17 40 c-50 118 -75 165 -96 178 -13 8 -406 165 -874 348 -467 183 -854
336 -858 340 -5 4 25 56 66 115 285 415 550 929 721 1399 l48 130 76 -2 c42
-2 451 -12 907 -24z m1200 -574 c279 -447 653 -955 969 -1320 59 -67 82 -101
74 -106 -12 -6 -682 -199 -692 -199 -3 0 -6 181 -8 403 -4 384 -5 405 -26 460
-27 74 -71 134 -123 169 -51 34 -91 42 -180 36 -134 -10 -263 -101 -327 -231
-61 -123 -64 -157 -63 -624 l2 -422 -38 -10 c-21 -6 -170 -48 -330 -94 -161
-47 -293 -83 -293 -81 0 2 18 45 41 96 294 666 586 1561 734 2251 l17 78 87
-148 c48 -81 118 -197 156 -258z m128 -732 c61 -65 62 -69 65 -523 l3 -416
-206 -58 c-113 -32 -207 -57 -210 -55 -2 3 -5 180 -5 394 -1 331 1 399 15 450
21 77 55 136 104 177 48 40 92 56 157 57 42 1 54 -3 77 -26z m-2888 -577 c275
-109 698 -274 939 -369 l439 -172 32 -70 c18 -38 29 -71 25 -73 -4 -2 -442
171 -973 383 l-966 387 -16 53 c-19 66 -19 68 3 62 9 -2 242 -93 517 -201z
m3894 124 c47 0 53 -11 40 -68 -7 -28 -16 -49 -20 -47 -4 3 -31 33 -60 67
l-54 61 34 -6 c18 -4 45 -7 60 -7z"/>
<path d="M1694 3290 c-13 -5 -42 -46 -71 -102 -27 -51 -79 -141 -116 -200 -67
-106 -76 -133 -57 -168 13 -25 17 -26 499 -135 366 -83 428 -95 452 -85 23 10
51 56 159 264 71 139 130 261 130 270 0 25 -17 54 -39 65 -15 8 -236 32 -886
95 -27 3 -60 1 -71 -4z m459 -184 c180 -18 330 -36 333 -39 6 -6 -127 -273
-149 -300 -10 -12 -62 -3 -350 63 -186 42 -340 80 -343 82 -3 3 13 34 34 69
22 35 51 85 66 112 22 38 32 47 54 47 15 0 174 -16 355 -34z"/>
</g>
</svg>
