<?xml version="1.0" standalone="no"?>
<!DOCTYPE svg PUBLIC "-//W3C//DTD SVG 20010904//EN"
 "http://www.w3.org/TR/2001/REC-SVG-20010904/DTD/svg10.dtd">
<svg version="1.0" xmlns="http://www.w3.org/2000/svg"
 width="512.000000pt" height="512.000000pt" viewBox="0 0 512.000000 512.000000"
 preserveAspectRatio="xMidYMid meet">

<g transform="translate(0.000000,512.000000) scale(0.100000,-0.100000)"
fill="#000000" stroke="none">
<path d="M2277 4360 c-371 -34 -733 -118 -1064 -249 -89 -35 -314 -142 -408
-194 -233 -129 -528 -345 -712 -520 l-94 -91 228 -228 c125 -125 232 -228 237
-228 5 0 42 31 82 70 354 336 834 592 1329 710 248 59 383 74 685 74 302 0
437 -15 685 -74 495 -118 975 -374 1329 -710 40 -39 77 -70 82 -70 5 0 112
103 237 228 l228 228 -94 91 c-184 175 -479 391 -712 520 -395 219 -833 362
-1297 423 -175 24 -580 34 -741 20z"/>
<path d="M2295 3038 c-468 -52 -942 -269 -1288 -589 l-79 -72 229 -229 c125
-125 232 -228 236 -228 5 0 45 32 90 71 617 535 1537 535 2154 0 45 -39 85
-71 90 -71 4 0 111 103 236 228 l229 229 -79 72 c-352 326 -822 538 -1305 590
-114 13 -399 12 -513 -1z"/>
<path d="M2455 1730 c-132 -15 -284 -64 -395 -130 -71 -42 -190 -137 -190
-153 0 -7 155 -167 345 -357 l345 -345 345 345 c190 190 345 351 345 357 0 7
-36 42 -80 77 -198 156 -468 234 -715 206z"/>
</g>
</svg>
